<svg xmlns="http://www.w3.org/2000/svg" viewBox="0 0 2480.65 129.82"><defs><style>.cls-1{fill:#fedc80;}.cls-2{fill:#fed76d;}.cls-3{fill:#fed86e;}.cls-4{fill:#fef5dc;}.cls-5{fill:#fed976;}.cls-6{fill:#fef5db;}.cls-7{fill:#fecf52;}.cls-8{fill:#fed054;}.cls-9{fill:#fed15a;}.cls-10{fill:#fed463;}.cls-11{fill:#fed974;}.cls-12{fill:#fecf50;}.cls-13{fill:#fed157;}.cls-14{fill:#fed568;}.cls-15{fill:#feda7a;}.cls-16{fill:#fed973;}.cls-17{fill:#fedb7d;}.cls-18{fill:#fed872;}.cls-19{fill:#fee8ae;}.cls-20{fill:#fedd84;}.cls-21{fill:#fecf53;}.cls-22{fill:#feedbe;}.cls-23{fill:#feda78;}.cls-24{fill:#fed053;}.cls-25{fill:#fee49e;}.cls-26{fill:#fed056;}.cls-27{fill:#feeec5;}.cls-28{fill:#feecbb;}.cls-29{fill:#fef4d7;}.cls-30{fill:#fedf8b;}.cls-31{fill:#fee296;}.cls-32{fill:#fee399;}.cls-33{fill:#fef7e4;}.cls-34{fill:#fedb7c;}.cls-35{fill:#fee08c;}.cls-36{fill:#fed86f;}.cls-37{fill:#fee192;}.cls-38{fill:#fee8ab;}.cls-39{fill:#fed669;}.cls-40{fill:#fef2d3;}.cls-41{fill:#fee08f;}.cls-42{fill:#fedf8d;}.cls-43{fill:#fed870;}.cls-44{fill:#fee193;}.cls-45{fill:#fecb40;}.cls-46{fill:#feeab4;}.cls-47{fill:#fee49f;}.cls-48{fill:#fedd83;}.cls-49{fill:#fede88;}.cls-50{fill:#feefc8;}.cls-51{fill:#fee9b0;}.cls-52{fill:#feeab3;}.cls-53{fill:#fed158;}.cls-54{fill:#fee6a5;}.cls-55{fill:#fee7ab;}.cls-56{fill:#fecc43;}.cls-57{fill:#fee08e;}.cls-58{fill:#fedc81;}.cls-59{fill:#fed360;}.cls-60{fill:#fed156;}.cls-61{fill:#fed055;}.cls-62{fill:#fef0c9;}.cls-63{fill:#fedb7b;}.cls-64{fill:#fedc7f;}.cls-65{fill:#fede87;}.cls-66{fill:#fed25d;}.cls-67{fill:#fed975;}.cls-68{fill:#fecd48;}.cls-69{fill:#5a2f88;}.cls-69,.cls-70{stroke:#fbb90f;stroke-miterlimit:10;}.cls-70{fill:#fff;stroke-width:0.75px;}</style></defs><g id="Calque_2" data-name="Calque 2"><g id="Calque_1-2" data-name="Calque 1"><path class="cls-1" d="M1341.62,32.38l-15.15.06a350.37,350.37,0,0,0-61.37.07l-44.78-.27a293.61,293.61,0,0,0-51.27.13c-3-7.87,4.14-4.33,6.18-4.36,24.11-.31,48.23-.2,72.34-.17,27.32,0,54.65.05,82,.19,58.6.3,117.21.16,175.81.51,55.59.34,111.21,0,166.81-.12,28.14-.05,56.34.5,84.49-.53,2-.08,4.12,0,6.8,3.67-12.33,1.94-23.75,1.07-35.12.91a273.67,273.67,0,0,0-51.36-.19l-15.2.19c-12.17-1.93-24.36-1.45-36.55-.22l-17.72.18a82.19,82.19,0,0,0-29.3.06l-10.12,0a112.75,112.75,0,0,0-34.21,0l-5.23,0a38,38,0,0,0-19.41,0l-7.85-.2c-34.35-1.28-68.69-1.48-103,.09l-5.36,0c-5.22-1.94-10.65-.48-16-.94C1365.22,32,1353.36,30.15,1341.62,32.38Z"/><path class="cls-2" d="M1289.52,89.6l-312.77.13c-1.62-1.47-1.63-2.91.08-4.33q115.77-.23,231.55-.43c26.27,0,52.54.21,78.81.32C1288.52,86.44,1291,87,1289.52,89.6Z"/><path class="cls-3" d="M2093.24,85.31l2.53.1c1.46,1.37,1.47,2.75,0,4.12l-214.22,0c-1.7-1.39-1.68-2.83-.14-4.32l83.81.07a133.48,133.48,0,0,0,36.81,0h2.63a115.84,115.84,0,0,0,34.33,0l5.1,0A236.09,236.09,0,0,0,2093.24,85.31Z"/><path class="cls-4" d="M1398,85.26l143.14-.13a3.16,3.16,0,0,1,.07,4.74L1398,89.8A3.12,3.12,0,0,1,1398,85.26Z"/><path class="cls-5" d="M1080.22,32.47l-15.16-.2c-6.46-1.34-12.91-1.62-19.34.19l-29.93-.15c-5.65-1.36-11.29-1.66-16.91.14l-5.15,0a282.18,282.18,0,0,0-54-.1c-4.4,0-8.94,1.53-13.17-4.21H1107.2q1.18,2.08-1.09,3C1097.51,32.17,1088.75,30,1080.22,32.47Z"/><path class="cls-6" d="M831.11,85.16l120.8,0a3.13,3.13,0,0,1,.05,4.73H833.53C832.18,88.55,829.58,87.85,831.11,85.16Z"/><path class="cls-7" d="M1901.12,32.38h-45.64c1.54-6,5.62-4.13,8.26-4.14q73.24-.25,146.48,0c2.76,0,7.12-2,8,2.64.37,1.93-2.35,1.46-3.89,1.55-32.89-2.21-65.82-.45-98.73-.92C1910.78,31.39,1905.83,30.45,1901.12,32.38Z"/><path class="cls-8" d="M892.87,32.32h-70c0-1,0-2,0-3h98.21c-1.58,4.93-5.69,2.71-8.74,3A43,43,0,0,0,892.87,32.32Z"/><path class="cls-6" d="M1568.27,85.1l88.81.13a3.07,3.07,0,0,1,.05,4.53l-89,.08A3.13,3.13,0,0,1,1568.27,85.1Z"/><path class="cls-9" d="M688.27,32.31c-2.11-8.57,5.2-4,7.23-4,30.25-.32,60.5-.13,90.75-.07,8,0,15.94,0,23.91,0l.09,4.17H766.92A649,649,0,0,0,688.27,32.31Z"/><path class="cls-10" d="M631.53,32.44l-27.35-.1a23.46,23.46,0,0,0-14.54.06c-5.07-.07-10.25,1.23-15.15-2.77H676.67c-9.19,4.49-18.73,2.61-28.15,2.64C642.84,31,637.17,30.64,631.53,32.44Z"/><path class="cls-11" d="M569.71,89.64H497.56c0-1.43,0-2.87,0-4.3h72.18C571.25,86.78,571.26,88.22,569.71,89.64Z"/><path class="cls-12" d="M269.16,32.4l-34.72,0a31.19,31.19,0,0,0-17-.08c-6.14-.6-12.48,1.7-19.36-.5,5.81-7.7,12.94-2.53,18.51-2.75,25.9-1.06,51.92-2.9,77.8.83C286.26,33.59,277.34,29.45,269.16,32.4Z"/><path class="cls-13" d="M1780.38,32.25c-3.76-2.39-1.85-4,1.09-4,20.63-.18,41.27-.1,61.91-.1,0,1.42.07,2.83.11,4.24h-51A17,17,0,0,0,1780.38,32.25Z"/><path class="cls-7" d="M1901.12,32.38a599.68,599.68,0,0,1,113.21,0Z"/><path class="cls-14" d="M1398.34,32.3c2.18-2.41,5.13-2.1,8-2.09q44.14,0,88.29.05c2.47,0,4.94-.06,6.79,1.95C1467,33.29,1432.69,33.24,1398.34,32.3Z"/><path class="cls-1" d="M1107.26,30.15c0-.66,0-1.31-.06-2,15.15-.12,30.31-.44,45.46-.16,2,0,9.35-3.66,6.19,4.42a21.36,21.36,0,0,0-14.54.05l-32.37-.16C1110.71,30.94,1108.28,32,1107.26,30.15Z"/><path class="cls-15" d="M452.9,85.78c12.71-1.55,25.4-1.13,38.1,0,0,1,0,2,0,2.94H452.89Z"/><path class="cls-7" d="M688.27,32.31c17.26-4.5,34.85-1.44,52.26-1.83,8.73-.19,17.92-2.64,26.39,1.91Z"/><path class="cls-16" d="M2095.77,89.53V85.41c12.71-.34,25.45-1.29,38,.26,0,1.29,0,2.57,0,3.86Z"/><path class="cls-17" d="M318.65,32.22c-2.76.13-5.63,1.49-8.25-.62,6.39-4.49,28.21-5.54,45.34-1.79-8.91,4.89-17.24,2.46-25.22,2.6C326.59,30.7,322.63,31,318.65,32.22Z"/><path class="cls-18" d="M2167.29,85.41l39.33-.11c1.49,2.63-.95,3.26-2.4,4.4l-36.92-.14C2165.82,88.18,2165.83,86.79,2167.29,85.41Z"/><path class="cls-19" d="M1336.71,89.53l-39.89.09c-1.42-1.08-3.5-1.83-2.32-4.24l42.22.16A2.64,2.64,0,0,1,1336.71,89.53Z"/><path class="cls-6" d="M1792.47,85.23l37.26,0a3.15,3.15,0,0,1,0,4.55l-37.29,0A3,3,0,0,1,1792.47,85.23Z"/><path class="cls-8" d="M532.15,30.5c11.25-2.49,22.5-3.4,33.72-.22C554.69,34.24,543.4,32.39,532.15,30.5Z"/><path class="cls-20" d="M525.8,30.83c-11,2.14-22.09,2.55-33-.52A61.2,61.2,0,0,1,525.8,30.83Z"/><path class="cls-21" d="M1265.1,32.51a170.14,170.14,0,0,1,61.37-.07Z"/><path class="cls-22" d="M759.49,85.42l27.28-.2c1.48,3,8-1.59,7.34,4.63l-34.62-.23A2.72,2.72,0,0,1,759.49,85.42Z"/><path class="cls-8" d="M2025.8,30.24c8.86-2.51,17.69-3.06,26.44.11C2043.46,33.68,2034.63,33.42,2025.8,30.24Z"/><path class="cls-23" d="M2167.29,85.41c0,1.38,0,2.77,0,4.15-9.14.12-18.39,1.92-27.43-4.15Z"/><path class="cls-24" d="M2108.2,32.38c18.82-3.64,37.65-3.35,56.48-.09Z"/><path class="cls-25" d="M1353.71,85.38l29.62-.25a3,3,0,0,1,0,4.64L1356,89.64C1354.62,88.55,1352.48,87.83,1353.71,85.38Z"/><path class="cls-8" d="M939.75,32.4a135.15,135.15,0,0,1,54,.1Z"/><path class="cls-26" d="M1169.05,32.37c17.08-3.74,34.17-3.26,51.27-.13Z"/><path class="cls-7" d="M1677,32.28c17.13-3.24,34.26-3.73,51.36.19Z"/><path class="cls-19" d="M737.44,89.64l-27.25,0a3,3,0,0,1,.16-4.58l24.8.38C736.63,86.5,738.7,87.21,737.44,89.64Z"/><path class="cls-27" d="M794.11,89.85l-7.34-4.63,27.33.15c1.43,1.17,3.7,1.94,2.27,4.48Z"/><path class="cls-28" d="M952,89.86l-.05-4.73,24.91.27c0,1.45-.05,2.89-.07,4.33Z"/><path class="cls-29" d="M1718.64,89.88l-27.3-.08c-.75-.54-1-1-.7-1.54s.55-.72.82-.72c8-4.28,16.56-1.81,24.89-2.26C1717.71,86.53,1720.1,87.31,1718.64,89.88Z"/><path class="cls-2" d="M2093.24,85.31a112.88,112.88,0,0,1-49.15,0Z"/><path class="cls-25" d="M737.44,89.64c-.77-1.38-1.53-2.77-2.29-4.15l24.34-.07v4.2Z"/><path class="cls-30" d="M1691.46,87.54a14.21,14.21,0,0,1-.12,2.26L1667,89.62c-1.57-1.43-1.56-2.88-.06-4.35C1675.16,85.2,1683.62,83.2,1691.46,87.54Z"/><path class="cls-31" d="M614,85.49h20.87c-7.1,7.28-15.68,1.69-23.17,4.27C610.35,87.25,612.48,86.52,614,85.49Z"/><path class="cls-17" d="M293.59,89.55c-7,0-14.12,1.62-20.84-2,6.74-3.8,13.93-2.24,20.93-2.32C295.14,86.68,295.16,88.13,293.59,89.55Z"/><path class="cls-32" d="M1718.64,89.88c-.76-1.54-1.53-3.07-2.29-4.6l22-.14a3,3,0,0,1,0,4.57Z"/><path class="cls-33" d="M362.73,85.14c8.25-3.84,16.53-3.51,24.83-.17l-.84,1.18c-1.91,1.48-4.73,1.41-6.29,3.48l-7.81.3c-1.86-2.37-4.72-2.33-7.34-2.86A6,6,0,0,1,362.73,85.14Z"/><path class="cls-32" d="M293.59,89.55l.09-4.35c6.1.55,12.44-1.26,20,1.73C306.46,91.84,299.78,89.07,293.59,89.55Z"/><path class="cls-8" d="M1341.62,32.38c12-4.76,24.55-1,36.78-2.14.81.49,1.08,1,.8,1.45s-.54.72-.82.72Z"/><path class="cls-2" d="M2002,85.31a63.74,63.74,0,0,1-36.81,0Z"/><path class="cls-8" d="M1625.22,32.25a64.75,64.75,0,0,1,36.55.22Z"/><path class="cls-34" d="M1353.71,85.38l2.33,4.26-19.33-.11c0-1.33,0-2.67,0-4Q1345.21,85.47,1353.71,85.38Z"/><path class="cls-35" d="M431.85,89.56c-5.33-.28-11,1.78-17.7-2.16,6.69-3.82,12.33-1.86,17.66-2.09A2.69,2.69,0,0,1,431.85,89.56Z"/><path class="cls-36" d="M431.85,89.56c0-1.42,0-2.84,0-4.26,5.41-.32,10.89-1.16,18.74,2C442.74,90.92,437.24,89.87,431.85,89.56Z"/><path class="cls-37" d="M362.73,85.14l2.55.33a2.35,2.35,0,0,1,0,3.83c-5.37.2-11,2.3-17.22-1.45C353.21,83.23,358.24,85.54,362.73,85.14Z"/><path class="cls-24" d="M1533.87,32.43a56.35,56.35,0,0,1,34.21,0Z"/><path class="cls-38" d="M1745.68,85.23c5.32.38,11-1.64,18.13,2.5-7.26,3.1-12.81,2-18.21,1.89A2.85,2.85,0,0,1,1745.68,85.23Z"/><path class="cls-2" d="M2039,85.35a57.83,57.83,0,0,1-34.33,0Z"/><path class="cls-39" d="M481.27,31c-7,2.54-11.68,1.78-18.26.69C469.74,26.45,474.41,27.73,481.27,31Z"/><path class="cls-40" d="M1851.69,85.17H1869c1.51,2.65-1,3.36-2.37,4.65l-15,0A3.13,3.13,0,0,1,1851.69,85.17Z"/><path class="cls-41" d="M656.19,89.59H637.58c6.94-7.6,13.59-1.31,18.57-4.26A2.71,2.71,0,0,1,656.19,89.59Z"/><path class="cls-42" d="M1780.19,89.74c-4.47-.45-9.43,1.81-14.77-2.62,6.3-3.25,11.86-1.66,17.16-1.83C1784.11,87.94,1781.61,88.57,1780.19,89.74Z"/><path class="cls-24" d="M1107.26,30.15l4.68,2.18-31.72.14C1088.86,27.61,1098.3,31.5,1107.26,30.15Z"/><path class="cls-43" d="M656.19,89.59c0-1.42,0-2.84,0-4.26l14.69,0c1.34,1.18,3.88,1.77,2.33,4.39Z"/><path class="cls-44" d="M429.48,32.4l-12.34,0c-1.61-1.45-1.63-2.88.09-4.26l17.06,0C435.28,32.39,430.71,30.6,429.48,32.4Z"/><path class="cls-45" d="M269.16,32.4c8-4.43,16.89-.81,25.2-2.48.64.39,1.8.74,1.83,1.17.16,2.3-1.8,1.92-3.17,1.89C285.07,32.84,277.11,32.6,269.16,32.4Z"/><path class="cls-46" d="M1568.27,85.1c0,1.58-.08,3.16-.11,4.74l-14.79,0a3,3,0,0,1,0-4.61Z"/><path class="cls-31" d="M1383.35,89.77c0-1.55,0-3.1,0-4.64l14.63.13c0,1.51,0,3,0,4.54Z"/><path class="cls-7" d="M2174.81,32.26a46.2,46.2,0,0,1,29.26-.09Z"/><path class="cls-8" d="M1578.2,32.49a41.28,41.28,0,0,1,29.31-.06Z"/><path class="cls-47" d="M375.1,32.53c-4.68.27-9.38.7-13.75-1.86,5.54-.35,10.78-5.59,16.49-.67C377.53,31.45,376,31.66,375.1,32.53Z"/><path class="cls-48" d="M614,85.49l-2.3,4.27c-3.88.19-7.92,1.11-12.44-2.5C604.7,84,609.38,84.87,614,85.49Z"/><path class="cls-19" d="M1866.63,89.82l2.37-4.65,12.41.09c0,1.44.09,2.88.14,4.32Z"/><path class="cls-34" d="M710.35,85.11c-.05,1.53-.11,3-.16,4.58-4.3,0-8.92,1.83-13.52-2.68C701.12,83.48,706,85.37,710.35,85.11Z"/><path class="cls-1" d="M1829.7,89.81c0-1.52,0-3,0-4.55l12,.19c1.56,1.36,1.57,2.7,0,4Z"/><path class="cls-49" d="M1553.4,85.2l0,4.61-12.2.06c0-1.58-.05-3.16-.07-4.74Z"/><path class="cls-31" d="M569.71,89.64c0-1.43,0-2.87,0-4.3l12.62.21c1.57,1,3.64,1.74,2.26,4.21Z"/><path class="cls-50" d="M831.11,85.16q1.21,2.34,2.42,4.69l-12.46-.18a3,3,0,0,1,.15-4.49Z"/><path class="cls-33" d="M412,88.1c-5.13,2.24-8.1,2.42-11.6-.23C403.78,83.78,406.83,85.36,412,88.1Z"/><path class="cls-51" d="M1780.19,89.74l2.39-4.45,9.89-.06-.06,4.53Z"/><path class="cls-5" d="M387.39,28.2c3.12,0,6.46-1.3,9.64,2-3.51,3.82-8,2.4-12.06,2.29C383.52,29.89,385.78,29.22,387.39,28.2Z"/><path class="cls-52" d="M436.43,28.24c4.73-.43,9.51-1,13.11,3.36-3.51,2-7.12.57-10.57.88C437.72,31.29,435.54,30.63,436.43,28.24Z"/><path class="cls-53" d="M1509.23,32.41c6.48-3.49,13-3.55,19.41,0Z"/><path class="cls-24" d="M892.87,32.32a20.43,20.43,0,0,1,19.48,0Z"/><path class="cls-24" d="M1045.72,32.46c6.41-3.59,12.86-3.36,19.34-.19Z"/><path class="cls-33" d="M387.56,85c3.05.26,6.41-.07,8.14,3.51-3.67,2.5-7.34,1.09-10.79,1.43-1.62-2.52.66-3.32,2.1-4.48Z"/><path class="cls-54" d="M1841.68,89.48c0-1.35,0-2.69,0-4l10-.27,0,4.68Z"/><path class="cls-55" d="M1666.89,85.27l.06,4.35-9.82.15-.06-4.54Z"/><path class="cls-17" d="M329.48,89.8c-2-.23-4.28-.4-4.26-2.87,0-1.92,2-1.83,3.54-1.85s3.29.25,3.66,2C332.86,89.23,330.94,89.37,329.48,89.8Z"/><path class="cls-56" d="M217.41,32.34c5.69-3.14,11.37-3.24,17,.08Z"/><path class="cls-47" d="M673.17,89.67l-2.33-4.39c2.95.06,7.46-1.74,8.23,1.71C680,91,675.63,89.57,673.17,89.67Z"/><path class="cls-53" d="M631.53,32.44c5.63-3.41,11.29-3.21,17-.17Z"/><path class="cls-8" d="M998.88,32.45c5.61-3.43,11.25-3.27,16.91-.14Z"/><path class="cls-57" d="M387.39,28.2c-.81,1.43-1.61,2.87-2.42,4.31l-9.87,0L377.84,30Z"/><path class="cls-58" d="M1294.5,85.38l2.32,4.24-7.3,0q-1.15-2.16-2.33-4.31Z"/><path class="cls-59" d="M1378.38,32.41c0-.73,0-1.45,0-2.17,4.85.74,10.21-1.84,14.58,2.09Z"/><path class="cls-60" d="M1144.31,32.49c4.83-3.49,9.68-3.49,14.54-.05Z"/><path class="cls-61" d="M589.64,32.4c4.83-3.35,9.68-3.3,14.54-.06Z"/><path class="cls-49" d="M1745.68,85.23c0,1.47,0,2.93-.08,4.4l-7.23.08c0-1.52,0-3,0-4.57Z"/><path class="cls-62" d="M417.23,28.17l-.09,4.26c-2.41-.37-6.59,1.43-6.12-2.85C411.3,27.12,414.93,28,417.23,28.17Z"/><path class="cls-63" d="M584.61,89.76l-2.26-4.21c3-.51,7-1.71,7.57,2.26C590.37,90.79,586.67,89.61,584.61,89.76Z"/><path class="cls-64" d="M365.3,89.3c0-1.28,0-2.56,0-3.84,3.77-.55,7.31-.76,7.34,4.47Z"/><path class="cls-31" d="M821.22,85.18l-.15,4.49-4.7.18c-.76-1.5-1.52-3-2.27-4.49C816.47,85.31,818.85,85.25,821.22,85.18Z"/><path class="cls-65" d="M387,85.43l-2.1,4.48-4.49-.27C380.12,84.55,383.74,85.25,387,85.43Z"/><path class="cls-8" d="M318.65,32.22c4-3,8-3.11,11.87.19Z"/><path class="cls-21" d="M1780.38,32.25c4.07-3,8.1-3.07,12.08.14Z"/><path class="cls-66" d="M436.43,28.24,439,32.48l-9.5-.08,4.81-4.2A5.71,5.71,0,0,1,436.43,28.24Z"/><path class="cls-67" d="M290.13,92.36H223c22.35-5,44.94-3.18,67.48-3.18Z"/><path class="cls-68" d="M199,32.67c1.06-1,2.12-3,3.18-3q33.94-.27,67.89,0c1.08,0,2.15,1.87,3.22,2.86Z"/><path class="cls-16" d="M2201,30.7v4.12c12.7.34,25.45,1.29,38-.26,0-1.29,0-2.57,0-3.86Z"/><path class="cls-23" d="M2272.53,34.82V30.67c-9.13-.12-18.38-1.92-27.42,4.15Z"/><path class="cls-24" d="M2213.44,87.85c18.82,3.64,37.64,3.34,56.47.09Z"/><g id="Cuisse_HG"><path class="cls-69" d="M8.09,63.86c-5.85-2.74-6.84-5.26-6.23-12C2.13,48.75.72,45.58.52,42.43a33.05,33.05,0,0,1,.79-6.74c.11-.72.61-1.42.59-2.12-.4-12.52,7.91-19.92,17-25.49,6-3.67,13.79-6.78,21.23-4.35,10.61,3.45,20.91-.62,31.33.1C74,4,76.64,3.6,79.23,3.52c3.24-.12,6.38.26,9.42-2,1.64-1.2,4.52-1.08,6.82-1,9.93.4,20-.26,29.59,3.31,7.52,2.8,15,5.64,22.61,8.27,3.84,1.32,7.86,2.1,11.74,3.32,9.62,3,19.56,5.4,28.7,9.52s18.24,4.89,27.71,5.48c1.85.12,3.74-.19,5.55.06a6.48,6.48,0,0,0,6.49-2.26c2.45-2.84,6.26-3.7,9.14-2,11.2,6.69,23.54,5.49,35.66,6.16a20.61,20.61,0,0,1,5.86,1.7c3.45,1.29,6.75,3.07,10.29,4,7.08,1.88,12,6.67,16.24,12,1.25,1.57,1.47,5.08.6,7a52.62,52.62,0,0,1-7.32,11.54c-1.94,2.38-3.31,4.16-2.27,7.48,1.34,4.23-.08,8-3.5,11-4.44,3.85-8.85,7-15.47,6.15-4.8-.62-9.82.83-14.73.67-7-.21-13.93-1-20.9-1.63-.48,0-1-.3-1.43-.36-7.7-.87-15.39-1.81-23.11-2.53-2.43-.23-4.91.24-7.38.26-4.16,0-8.5.69-12.46-.22-9.16-2.11-17.72.3-26.26,2.59-3,.82-5.43,3.84-8.41,5.24-5.13,2.4-10.56,4.15-15.71,6.52-2.53,1.16-4.71,3.08-7,4.66-1.82,1.23-3.64,2.49-5.48,3.7-1.65,1.07-3.92,1.7-4.9,3.19-2.56,3.9-6.63,5.78-10.07,8.48-4.14,3.23-12.51,3-17.07.41-1.54-.86-4.34-.49-6.14.3-3.5,1.53-6.22,1.12-9.16-1.25A87.77,87.77,0,0,0,76.1,116c-1-.62-3.08-.32-4.3.28-4.36,2.11-12.09-.14-14.62-4.28A5.7,5.7,0,0,0,54,109.89c-2.12-.59-4.48-.46-6.52-1.21a18.35,18.35,0,0,1-5.07-3.28,34,34,0,0,1-4.19-4.29A4.12,4.12,0,0,1,37,98.59C37.34,95,34.8,94,32.24,93s-4.91-2-7.17-3a6.72,6.72,0,0,1,.11-1.31c.8-1.65,1.63-3.29,2.44-4.93a24.76,24.76,0,0,0,4.44,3c1.15.48,2.66.07,4,.06-2.2-3-4-5.64-6.1-8a4.74,4.74,0,0,0-3.24-1,9.05,9.05,0,0,1-8.31-5.31A15.79,15.79,0,0,0,8,63.79Zm215-28.42c-5-.27-9.86-.26-14.61-.85A113.2,113.2,0,0,1,194,31.73c-2.39-.64-4.29-1-6.61.41-1.23.76-3.29.48-4.9.23-2.3-.37-4.51-1.23-6.79-1.73-6.26-1.38-12.55-2.39-18.66-4.56-5.65-2-11.71-2.84-17.7-4.22.19,4.89,1.7,8.76,6.79,10.89a9.46,9.46,0,0,1,4.8,4.81c2.29,6.17,7.61,7.08,13.18,9.08-1.4-2.47-2.56-4.22-3.42-6.1a4.79,4.79,0,0,1,2.14-6.67c2.75-1.6,4.85-.12,6.18,2.2,1.09,1.88,1.59,4.1,2.49,6.11.58,1.28,1.13,3.1,2.17,3.54,2.76,1.18,3.4,2.84,2,5.37,3.13.74,5.88,1.42,8.65,2,5.11,1.12,6.52,4.85,3.25,8.94-.91,1.14-2.28,1.9-3.29,3a39.18,39.18,0,0,0-2.58,3.28L186,69.82c-1.71,1.18-3.2,2.69-5,3.35-3.57,1.3-7.69,1.46-10.89,3.3-4.9,2.83-8.83,7.47-13.89,9.83-4,1.89-4.8,5.21-6.54,8.24-1.26,2.18-.25,4.64,1.64,4.6s11.31-7.28,11.25-9.39c-.19-5.85,3.95-7.92,8.12-9.78,3.6-1.61,7.3-4,11.49-2.69,3.58,1.07,5.56-.41,7.31-3.18a5.07,5.07,0,0,1,2.44-2.25c8.1-2,16.22-4.08,24.4-5.75,5.13-1,10.35-1.56,14.06-5.66-2-6-6.17-7.1-12-6.66-4.72.35-9.56-.83-14.33-1.45-6.28-.81-12.31-4.35-18.94-1.41-1,.43-2.75-.15-3.81-.8-3.14-1.93-3.48-7.6-1.16-10.47,1.79-2.21,4-2.84,6.6-3.35,5.52-1.07,11-2.3,16.5-.22a13.25,13.25,0,0,0,3.56.92c5.79.46,11.58.81,17.42,1.21ZM4.33,44c5,1.29,9.15,4,9.44,7.17s2.33,3.8,5.13,5.42C18,54.08,17,52.46,16.76,50.74s-.25-4.13.7-5.47c1.73-2.44,3.37-4.36-.83-6.94,5-2.63,8.42-6.86,14.3-5.92a24.09,24.09,0,0,0,4.8,0c6.28-.28,12.56-.65,18.84-.8a6.91,6.91,0,0,1,4.13,1.11c3,2.3,6,2.16,9.41,1.06a26.21,26.21,0,0,1,7.15-1.17c3.43-.11,6.88.15,10.32.32,2.45.12,4.91.57,7.34.46,2-.09,4.45-.24,5.61-1.43.86-.89,0-3.49-.19-5.32-.09-.84-.15-1.95-.68-2.44-1.5-1.39-3.4-3.73-4.84-3.53-5.14.69-8.1-2.45-11.24-5.31-3.89-3.55-3.16-6.25,2.65-7.9-3.51,0-6.2.11-8.9,0C72.83,7.4,72.26,8.6,73,10.73s1.51,4,2.29,6.06L61.21,19l2.28,5.54-.42.2-2.6-3.56c-3.1.85-5.74,1.67-8.43,2.28-4.16.94-8.34,1.78-12.54,2.56-2.6.48-4.44-.56-4.8-3.29a50,50,0,0,1-.09-5.83,23.57,23.57,0,0,1-3.71,1.27c-2.71.47-5.51,1.19-8.19.95-3.32-.3-4.12-2.95-2-5.59a16.83,16.83,0,0,1,2.44-2.08C12.93,13.84,1.47,33.94,4.33,44Zm54,10.42c2.62,1.73,7.38,1,5.22,6.11-.12.28.93,1.48,1.53,1.56,3.94.57,6.17,2.31,6,6.12-.15,3.3,1.41,5.38,3.38,7.4,2.91,3,4.77,6.24,3.33,10.71.57-.28.8-.7,1.15-.92,3.93-2.41,8-4.6,8.87-9.88.09-.56,1.52-1.14,2.42-1.32,5.79-1.19,11.61-2.22,17.4-3.44a29.06,29.06,0,0,0,4-1.67c1.27-.5,2.58-.92,3.87-1.36,1.1-.37,2.2-.72,3.3-1.08-.46-1.07-.68-2.38-1.44-3.18C114,59.9,110.53,56.52,107,52.94c-4.4,4.14-10.29,5.84-16.43,6.84-2.85.47-5.11-.28-5.89-3.58-.22-.93-1.11-2.28-1.86-2.4a94.65,94.65,0,0,0-14.29-1.57C65.24,52.23,62,53.55,58.31,54.38Zm72.5,31.69,1.3-.5c-1.29-2.42-2.27-5.1-4-7.17-1.16-1.4-3.42-2.8-5.08-2.69a30.19,30.19,0,0,0-9.58,2.44,87,87,0,0,0-13.78,7.08,53.73,53.73,0,0,0-10.08,9c-1.54,1.71-1.86,5,1,5.9,2.27.76,5.11.25,7.59-.23a38.78,38.78,0,0,0,7.72-2.54c2.64-1.12,5.45-2.21,7.59-4s3.81-2.82,6.55-2.43c3.31.46,6.42.2,8.09-3.54C128.44,86.66,129.88,86.48,130.81,86.07ZM254.5,62.81c1.12,1.94,3.92,2.58,7.39,2.18,3.06-.36,4.91,1.57,6.16,4.34a27.25,27.25,0,0,0,3.17,4.43,51.91,51.91,0,0,0,4.81-4,12.49,12.49,0,0,0,2.52-4c.92-2.48-.45-4.84-2.67-5.08-3.34-.36-5.08-2.91-3.68-5.85.93-1.94,1.77-3.75-.25-5.26s-4.37-1.36-6.39.49A27.41,27.41,0,0,1,263,52.06c-1.63,1.17-3,2.27-1.18,4.47.29.36-.5,2.38-1,2.48a23.14,23.14,0,0,1-4.85,0c-1.51-.05-3.82-.76-4.4-.05-1.72,2.11-3.39,1.23-5.3.89-3.08-.55-5.82,0-7.29,2.43,2.59,0,5-.12,7.45,0S251.09,62.55,254.5,62.81Zm-147.19-49c.84,4.55,1.77,9.52,2.7,14.49l-1,.52C107.58,19,100.3,14.87,92.7,10.27c4.68,8.44,8.89,16.27,13.43,23.91.44.73,3.12.83,4.31.27,2.45-1.15,4.6-2.94,7-4.58l-2.34-4.54c4.31-2.11,5.06-4.17,2-6.41s-3-3.9-.06-5.92c-1.68-2.66-3.38-3-5.67-1.24A25.64,25.64,0,0,1,107.31,13.81ZM144,66.06l.24,1.71a48.2,48.2,0,0,0,5-.07c1.83-.19,3.66-1.06,5.43-.92,5.09.39,9.73,0,12.66-4.92.57-1,1.62-2.36,1.31-3-.49-1-2.08-2.17-3-2-4.83.8-9.59,2-14.36,3-1,.22-1.89.59-2.84.89l1.26,1.52,3.07,1.18ZM224,43.43l-1.22.47a31.3,31.3,0,0,0,4,4.08c.63.47,2.18.24,3-.22A51.08,51.08,0,0,0,235,44c-.45-.61-1.07-2.4-2-2.6a14.29,14.29,0,0,0-5.68.38A12.92,12.92,0,0,0,224,43.43ZM257,81c3,2.46,10.77.5,11.89-2.68.2-.59.11-1.7-.27-2a2.67,2.67,0,0,0-2.31-.4C263.16,77.54,260.14,79.29,257,81ZM130.2,17.69c.19,2.49-5.51,3.71-.7,6.26,2.1,1.12,4.82,1.69,5.72-.79C136.76,18.92,132.19,19.63,130.2,17.69ZM143.82,71c-4.26-1.29-7.7-.08-8.84,3.12C140.41,75,143.06,74,143.82,71Zm-25-55.79,6.72.86a15.05,15.05,0,0,0,0-1.88c-2-.25-4-.38-6-.51A16.29,16.29,0,0,0,118.77,15.25Zm103.82,52.6a29.83,29.83,0,0,0-2.23,3.58c-.06.15,1.38,1.35,1.63,1.21a18.69,18.69,0,0,0,2.83-2.31Z"/><path class="cls-69" d="M8.3,65.06l10,13.58c2.12,2.87,4,5.83,3.26,10.83-1.32-1.88-2.16-3-2.93-4.18C16.14,81.52,13.73,77.7,11.22,74,10,72.07,8.28,70.43,7.28,68.43c-.36-.72.71-2.16,1.12-3.28Z"/><path class="cls-69" d="M160.64,39.71c-.3.23-1,1.24-1.73,1.23-2,0-4.88-4.65-4.27-7a4,4,0,0,1,2.46-2.56C159,31,161,35.3,160.64,39.71Z"/><path class="cls-70" d="M285,76.54l2.77-3.83a7.7,7.7,0,0,1-2.55,5.07c-4.4,4.19-12.1,4.09-16.94-.2-2.78-2.46-4.36-5-6.56-10.27,1,5.31,3.41,10,9.05,12.73,5.37,2.62,9.85,2.09,15.05-1.35-1.89,3.12-6.13,4.26-13.7,3.77a19.1,19.1,0,0,0,10.93-.37c-5.49,3-11.14,2.17-16.83.48,7.42,2.89,14.53,3.11,21.13-2.1-1.63,2.81-6,4.86-10.47,5.3-7.73.76-14-2.24-19.53-6.43a32.37,32.37,0,0,1-13.25-22.78c-.15-1.2-.3-2.41-.55-3.6a28.43,28.43,0,0,0,3.9,16.19c4.77,8,11.78,14,21.81,16.58,7.17,1.81,13.94.91,19.14-4.38a2.24,2.24,0,0,1,.53-.24c-3,6.41-12.47,8-26.67,4.89a74.08,74.08,0,0,0,7.26,1.82c6.86,1,13.27.43,18.42-4.29,4.31-4,5.61-8.51,3.81-13.78-.42-1.22-1-2.39-1.5-3.52,3.08,2.82,3.9,9.17,1.59,13.55-3.18,6-9,8.86-16.25,9.54-9.23.86-17.49-1.83-25.3-5.95-1.31-.69-2.6-1.42-3.9-2.13,0,0-.11,0-.2.05s-.07.23,0,.26c6.89,4.37,14.39,7.49,22.88,8.25s16.11-.7,21.77-6.84c-2.67,4.25-6.93,6.59-12.17,7.62a41.31,41.31,0,0,1-20.9-1.38c-9.18-3-16.87-7.92-23.92-13.82a107,107,0,0,1-24-28.31,3.87,3.87,0,0,0-1.16-1.32,3.57,3.57,0,0,0,.26.78A104.23,104.23,0,0,0,236.93,79c8.07,6.09,17,10.78,27.46,12.62,7.45,1.31,14.83,1.08,21.56-2.47,7.37-3.9,10.77-11.12,8.83-18.53a1.05,1.05,0,0,1,.18-1.12,30.89,30.89,0,0,1,1,3.85c.86,7.4-4.39,15.22-12.18,18.11-8.8,3.26-17.73,2.83-26.64.18-2.81-.84-5.46-2.11-8.18-3.18a13.29,13.29,0,0,0-1.64-.58c8.55,5.32,27.62,10.44,42,2.42a59.61,59.61,0,0,1-5.49,3.16C278.08,96,272,96.1,265.84,95.37A59.94,59.94,0,0,1,240.49,86c-7.21-4.6-14-9.76-20.93-14.63-9.1-6.33-18.86-11.7-30.19-14.18-14.26-3.13-28-1.57-39.86,6C140.45,69,136,77.29,138.2,87.62c.1.47.32.92.15,1.32.14-3.42-.31-7,.53-10.23,2.2-8.59,8.21-14.76,17.37-18.29,13.91-5.37,27.87-5.2,42,.2,9.16,3.5,16.88,8.75,24.44,14.29,3.62,2.65,7.14,5.41,10.62,8.23-10.25-6-19.19-13.87-31.2-17.42a30.14,30.14,0,0,1,4.16,1.69c6.46,3.82,13,7.5,19.22,11.66,8.22,5.54,16.65,10.65,26.21,14.26a53.13,53.13,0,0,0,29.56,2.93c-1.51.39-3,.88-4.52,1.16-9.75,1.79-18.87-.26-27.65-4-3.63-1.53-7.13-3.31-10.69-5-3.65-2.23-7.24-4.56-11-6.67-6.26-3.53-12.51-7.1-19-10.29-3.46-1.71-7.38-2.66-11.09-4l-.19.45c2.89,1,5.82,1.87,8.68,2.92,7.44,2.73,13.82,7,20.53,10.85,4,2.25,7.88,4.59,11.82,6.89,10.63,6,21.77,10.79,34.81,10.09,16-.87,28-14,25.2-27.47-.36-1.71-1.14-3.36-1.55-5.14a18.15,18.15,0,0,1,1.24,2.06,17.94,17.94,0,0,1,.42,14.13C294.53,92.49,284.82,99,272.57,99.87a52.52,52.52,0,0,1-21.93-3.32c-6-2.2-12.09-4.38-18.12-6.61a64.26,64.26,0,0,0-25.39-4.19c11.13-.25,21.19,3.14,31.22,6.94,7.26,2.75,14.42,5.82,22.29,7.14a43,43,0,0,0,22.25-1.64c.38-.14.77-.24,1.17-.35.05,0,.12,0,.18,0-2.28,1.74-7.07,3-12.24,3.42-7.13.61-13.95-.67-20.69-2.57-8.08-2.26-16-5.1-24.26-6.64a81.66,81.66,0,0,0-36,1.09l.06-.05c-7.64,1.33-14.42,4-19.32,9.91.87-2.52,1.2-2.87,7.11-7.68a17.77,17.77,0,0,0-9.09,8.33c3-8.18,10.64-11.58,19.15-14.07-7.46,1.5-14,4.39-18.54,10l-.42-.27a18.58,18.58,0,0,1,2.19-3.07,30,30,0,0,1,12.88-7c.72-.2,1.42-.43,2.13-.64l-.23-.53-10,3.5a21.77,21.77,0,0,1,9.48-4c3.28-.46,6.67-.39,10-.61a29.9,29.9,0,0,1-12.17-4.33C189.87,75,201,73.32,209,79c2.77,2,5.47,4,9.13,4.61.4.07.81.16,1.22.21a1.12,1.12,0,0,0,.68-.2c-4.82-.85-7.92-4-11.63-6.39a21.93,21.93,0,0,0-8-2.88c-9.74-1.64-18.13.51-24.58,7.41,1.24-2.63,3.53-4.37,6.14-5.83,1.25-.7,2.58-1.3,3.88-1.94l9.75-1.38c-3.33,0-6.66,0-9.72,1.42-4.36.72-7.55,3.06-10.4,5.85l-.41-.28,3.64-4.26-.16-.17c-1.32,1.14-2.65,2.28-4.35,3.76,2.27-5.65,7.44-6.75,12.94-7.62-4.14-1-10.5,1.22-13.12,4.31a46.4,46.4,0,0,1-4.3,4L169,79c.56-.88,1-1.79,1.69-2.62s1.42-1.57,2-2.44a11.07,11.07,0,0,0-5.47,7.32c-.66-2.9-.07-3.89,5.46-9.89-4.45,2.7-7.18,6.25-7.14,11.17-.93-6.3,3.06-10.17,8.54-13.32-5.77,1.92-8.72,5.84-10,10.94-.5-4.75,2.58-8,6.13-11-3.12.69-6.3,4.73-7.76,9.58.28-5.41,3.11-9,7.75-11.57a13.57,13.57,0,0,0-7.34,5.72C163,68.08,169,65.46,181,64.81l0-.53c-2.09-.08-4.18-.22-6.28-.24-6.61-.06-13.17.08-19.27,2.75-7.81,3.41-12.35,8.9-13.85,16.42-.06.28-.13.56-.2.85l-.7-.17c.75-2.42,1.19-5,2.3-7.24,3.92-8.09,11.53-12,21-13.35,4.53-.63,9.2-.51,13.1-.69-9.81-1.26-19.72-.19-28.25,5.85a20.79,20.79,0,0,0-8.32,12.69c-1.09,4.61.37,8.73,3.58,12.37,1.11,1.27,2.88,2.1,4.35,3.13l.51-.47-.8-1.08a4.32,4.32,0,0,1,.33-5.94A6.25,6.25,0,0,1,155,87.23c5,1.23,7.08,6.25,4.2,10-4.1,5.29-13.74,5.94-19.54,1.27-5-4-6.83-9.24-7.14-15-.65-12.31,8.64-28.82,28.07-33.31a9.3,9.3,0,0,1,2.41,0,31.24,31.24,0,0,0,6.19-.16c-1.74-.29-3.48-.57-5.22-.89a2.52,2.52,0,0,1-1.41-.84l3.39-.22,0-.45h-6.41l0-.68c1.92-.09,3.83-.29,5.74-.24s4,.34,6.27.55c-4.91-1.73-9.68-1.32-14.47-.82l0-.64,6.34-.73v-.29L155,45c6.21-1.67,12.1,0,18,1.29a34.75,34.75,0,0,0-19.28-2.41l0-.51c1.3-.2,2.6-.45,3.91-.56s2.89-.13,4.34-.39l-7.15-.29c6.35-1.07,12.33.2,18.67,2.68-2.78-2-6.91-3.11-15.21-4.44,5.08-.56,9.72,1.1,14.36,2.72l.2-.51-9.65-3.36a60,60,0,0,1,15.37,4.36c-2.57-1.77-5.52-3.18-7-6.23l8.26,5.55.27-.27-8.21-6.32.34-.35,6.48,4.53.27-.31L173.61,36l.3-.37,5.26,3,.24-.31-4.32-3,.24-.31,7.24,4.39.3-.38-8.76-5.7.1-.23A30.7,30.7,0,0,1,179,35.32a61.15,61.15,0,0,1,8.15,6.27,15.42,15.42,0,0,0,9.92,4.85c1.15.09,2.29.37,3.51.44-3.79-1.9-8.88-1.7-11.41-5.45L197.41,45l.29-.46c-3.88-1.64-7.86-3.17-10.3-6.52l5.36,3.47.19-.24-6.86-5.78.44-.4c1,.88,2,1.75,3,2.62l.43-.31-3.4-3.72.29-.22,6.38,5.46.31-.27-3.93-3.78.22-.22,2.18,1.5.15-.11-2.1-1.42.45-.5,2,.27c-3.22-1.31-5.52-3.25-6.58-6.57l5.91,4.09c-2-2.49-4.89-4.27-6.74-6.81l.43-.35,5.28,4.18.41-.34-6.67-5.82.57-.53,5,3.57.26-.24-6.57-5.46c4.31,1.73,7.36,4.68,10.52,7.55a39,39,0,0,0-11-9.8c5.43,2,9.52,5.58,13.57,9.21a43.13,43.13,0,0,0-11.3-9.7c5.79,1.69,9.86,5.24,13.2,9.58l.43-.29c-1.37-1.58-2.62-3.26-4.15-4.72s-3.36-2.71-4.92-4.17c6.16,2.21,9.57,6.73,12.47,11.71a25.28,25.28,0,0,0-6.18-9.29c3.8,1.63,5.78,4.56,7.56,7.71l-1.59-4.36.51-.16L205.46,28l.43-.17-3.5-6.89.34-.2,4,5.11.42-.21-4.53-6.5c2.83.75,8.66,9.35,8.71,13.16l-.92-1a.91.91,0,0,0-.17.08c.2.88.4,1.77.71,3.11l-1.3-1.79c.73,2.9,1.33,5.94,2.3,8.9s2.82,4.17,6.05,4.29c-1.44-.79-2.84-1.12-3-2.8-.14-1.17-1.39-2.25-1.79-3.56,1.3,1.59,2.61,3.17,3.92,4.76l.11-.1c-1.44-2.54-2.89-5.07-4.32-7.61-.07-.12.07-.33.14-.63l2.69,3.53.29-.13-1.86-3.54.37-.23,2.68,3.19.34-.15-2.61-4.33c2.85,2,3.79,4.52,5,6.87l.47-.19-3.53-7.15c3,2.77,3.85,6,5,9l.53-.15-2.51-7.43.25-.11,3,5.89-.18-2.19,1.22,1.28-2.21-7.84c2.42,3.2,2.86,6.84,3.49,10.44.44-3.66-.5-7.13-1.88-10.55a3.08,3.08,0,0,1-.05-2.1c2.22,5,3.75,10.13,3.38,15.54,1.22-5.56-.77-10.83-1.69-16.28.55,1.24,1.17,2.45,1.62,3.72A33.3,33.3,0,0,1,227.86,37c.31,1.35.54,2.71.8,4.06l.61-.08c-.61-3.15-1.23-6.29-1.82-9.33,2.4,1.52,3.3,6.07,2.87,14.4,1.12-3.77.76-7.59.14-11.74a5.89,5.89,0,0,1,1.77,5.21c-.25,3-.86,6-1.31,9a10,10,0,0,0-.11,3l2.48-11,.57.09c-.49,2.19-1,4.38-1.44,6.58a61,61,0,0,0-1,6.57l1.81-6.89.23,0c-.26,2.46-.88,4.94-.69,7.37a22.61,22.61,0,0,0,1.91,7.63,25.45,25.45,0,0,0,4.84,6.34C236.34,64.2,233.89,60,234,55c1.1,3.83,2.44,7.56,5.41,10.71-3.35-5.86-5.87-11.83-3.74-18.49-.39,5,.12,9.95,3.14,14.48-2.21-5.35-3.11-10.74-1-16.24a19.2,19.2,0,0,0,1.16,11.68c-1.24-5.37-1.35-10.61,1.69-15.54l-1.07,9.59.72.09c.34-4.53.72-9,4.22-12.69l-2.27,6.81.31.08L245.55,39l.51.18-1.67,5.3c1.41-2.72,2.57-5.5,5.35-7.45-3,4.49-5,9.24-4.35,14.61.49-5.43,2.05-10.47,6.47-14.5-2.74,4.2-4.61,8.61-4.33,13.59.79-3.89,1.54-7.8,4.62-11-1.86,4.87-3.87,9.72-3.23,14.63.88-3.41,1.84-7.15,2.8-10.89l1.05.17a17.88,17.88,0,0,1-.37,2.74,55.36,55.36,0,0,0-1.81,7l2.5-6.46.86.18a7.8,7.8,0,0,1-.42,2.24c-2,3.81-3.19,7.74-2.82,11.65,1-3.45,2.16-7.2,3.28-11l.91.17a5.16,5.16,0,0,1-.26,1.48A24.68,24.68,0,0,0,252.23,63c0,3.27,1.63,5.94,4.52,8.05-2.58-3.22-3.39-6.6-1.35-10.66a33.55,33.55,0,0,0,.1,4.91,15.42,15.42,0,0,0,1.69,4.48c-1.13-4.06-1.69-8,.69-11.81L257,65.11l.26,0,2-8,.53.1-.95,4,.18,0q1.45-2.91,2.93-5.82l.48.17-1.54,4.71.28.1,3.3-5.53.51.18c-1.33,2.5-2.63,5-1.78,7.86l1.08-4.61.6.07-.15,3.83.49,0,.36-2,.46,0c.18,2.93.37,5.85.56,8.78l.56,0c-.07-2-.15-3.92-.22-5.88l.78-.07c.32,1.69.71,3.38.94,5.08.37,2.75.74,5.54,3.25,7.53a10,10,0,0,0,14.6-2.27l-1.5,3.2c-1.9.88-3.71,2.14-5.74,2.53s-4.35-.07-6.77-.17c1,.29,1.86.57,2.71.76C278.35,80.37,284.11,79,285,76.54Zm-129.24,22c3.47-2,4.12-6.33,1.32-8.81-1.91-1.7-5.53-1.89-7.41-.4s-2.08,3.59-.17,5.54a13.56,13.56,0,0,1-.7-2.18c-.22-1.84,1.4-3.51,3.6-3.81A5.07,5.07,0,0,1,158,92.12c.73,2.52-.36,4.5-2.35,6.21-4.93,2.54-9.73,2.12-14.45-.57a19.69,19.69,0,0,1-7.13-15.61c.06-4.45.83-8.76,3.58-12.62a12.78,12.78,0,0,1-.52,1.73,23.39,23.39,0,0,0-2.42,11.88,64.89,64.89,0,0,0,1.48,7.34l.76-.1a18.33,18.33,0,0,1-1.52-11.62c.87-3.79,2.4-7.47,3.49-10.77l-1.35,1.6c1.57-3.77,4.29-6.84,7.37-9.73,1.74-1.63,3.29-3.4,4.93-5.11l.65.62a1.44,1.44,0,0,0-.38.06c-11.18,5.85-18.6,19.8-16.39,31.15a16.28,16.28,0,0,0,7.38,11.25C144.49,101.08,151.83,101.42,155.8,98.51ZM143,93.85a4.08,4.08,0,0,0,4.45,3.3L143,93.86c-.37-.65-.69-1.31-1.09-1.94A14.82,14.82,0,0,1,140,79.86c2-8.31,8-13.81,16.56-17.28a44.29,44.29,0,0,1,8.06-2.26c2.75-.54,5.59-.7,8.39-1-10-.42-18.87,2-26,8.12-5.87,5-9,11.34-7.88,18.79C139.55,89,140.36,91.81,143,93.85Zm0,3.88a20.62,20.62,0,0,0,2.51,1.13c4.18,1.38,8.59.32,10.75-2.52,1.66-2.18,1.25-5.14-1.16-6a7.11,7.11,0,0,0-4.22.2c-.7.24-.93,1.53-1.36,2.34l.49.21c.51-2.11,2.07-3.16,4-2.68a3.29,3.29,0,0,1,2.44,4.39,6.64,6.64,0,0,1-6.19,4.09A56.92,56.92,0,0,1,143,97.73Zm17.26-35.66c3.62-.35,7.49-.94,11.39-1s7.86.26,11.79.42C174.41,60,164.11,60.38,160.24,62.07ZM224,53.53c.46,3.28,3.85,10.34,5.7,12Zm-70.61,37c.82,1.35,1.85,2.28,1.82,3.17s-1,2-1.52,3c1.78-.93,2.72-2.26,2.08-3.73C155.41,92.13,154.36,91.5,153.4,90.56Zm34-8.4,0,.56,8.91-.5v-.16Zm15.25-3,.06-.24-8.25-1.61-.13.56ZM188.1,80.74l.05.59,7.34-.54,0-.34Z"/></g><g id="Cuisse_HG-2" data-name="Cuisse_HG"><path class="cls-69" d="M2472.56,66.89c5.85-2.74,6.84-5.26,6.23-12-.27-3.06,1.15-6.23,1.34-9.38a33.05,33.05,0,0,0-.79-6.74c-.11-.72-.61-1.42-.59-2.12.4-12.52-7.91-19.92-17-25.49-6-3.67-13.79-6.78-21.23-4.35-10.61,3.45-20.91-.62-31.33.1a75,75,0,0,1-7.77-.32c-3.24-.11-6.38.27-9.42-2-1.64-1.2-4.52-1.08-6.82-1-9.93.41-20-.25-29.59,3.32-7.52,2.8-15,5.64-22.61,8.26-3.84,1.33-7.86,2.1-11.74,3.33-9.62,3-19.56,5.4-28.7,9.52s-18.24,4.89-27.71,5.48c-1.85.11-3.73-.19-5.55.06a6.48,6.48,0,0,1-6.49-2.26c-2.45-2.84-6.26-3.7-9.14-2-11.2,6.69-23.54,5.49-35.66,6.16a20.59,20.59,0,0,0-5.86,1.69c-3.45,1.29-6.75,3.08-10.29,4-7.08,1.89-12,6.68-16.24,12.06-1.25,1.57-1.47,5.07-.6,7a53,53,0,0,0,7.32,11.54c1.94,2.37,3.31,4.16,2.27,7.48-1.34,4.23.08,8,3.5,11,4.45,3.85,8.85,7,15.47,6.15,4.8-.62,9.82.82,14.73.67,7-.21,13.94-1,20.9-1.63.48,0,.95-.3,1.43-.36,7.7-.87,15.39-1.81,23.11-2.53,2.43-.23,4.91.24,7.38.26,4.16,0,8.5.69,12.46-.23,9.16-2.1,17.72.31,26.26,2.6,3.05.82,5.43,3.84,8.41,5.24,5.13,2.4,10.56,4.15,15.71,6.52,2.53,1.16,4.71,3.08,7.05,4.65,1.82,1.24,3.64,2.5,5.49,3.71,1.64,1.07,3.91,1.7,4.89,3.19,2.56,3.9,6.63,5.78,10.07,8.48,4.14,3.23,12.51,3,17.07.41,1.54-.87,4.34-.49,6.14.3,3.5,1.53,6.22,1.12,9.16-1.25a89,89,0,0,1,10.73-7.36c1-.61,3.08-.31,4.31.29,4.35,2.11,12.08-.14,14.61-4.29a5.73,5.73,0,0,1,3.18-2.12c2.12-.6,4.48-.46,6.52-1.21a18.35,18.35,0,0,0,5.07-3.28,34,34,0,0,0,4.19-4.29,4.12,4.12,0,0,0,1.27-2.53c-.39-3.63,2.15-4.58,4.71-5.63s4.91-2,7.17-3a6.72,6.72,0,0,0-.11-1.31c-.8-1.65-1.62-3.29-2.44-4.93a24.76,24.76,0,0,1-4.44,3c-1.15.47-2.66.07-4,.06,2.2-3,4-5.64,6.1-8a4.8,4.8,0,0,1,3.24-1,9,9,0,0,0,8.32-5.3,15.81,15.81,0,0,1,10.44-8.63Zm-215-28.42c5-.27,9.86-.26,14.61-.86a111.47,111.47,0,0,0,14.47-2.85c2.39-.64,4.29-1,6.61.41,1.23.76,3.29.48,4.9.22,2.3-.36,4.51-1.22,6.79-1.72,6.26-1.39,12.55-2.39,18.67-4.56,5.64-2,11.7-2.84,17.69-4.22-.19,4.88-1.7,8.75-6.79,10.88a9.48,9.48,0,0,0-4.8,4.82c-2.29,6.17-7.61,7.08-13.18,9.08,1.4-2.48,2.56-4.22,3.42-6.11a4.8,4.8,0,0,0-2.14-6.67c-2.75-1.59-4.85-.11-6.18,2.21-1.09,1.88-1.59,4.1-2.49,6.11-.58,1.28-1.13,3.1-2.17,3.54-2.76,1.18-3.4,2.84-2,5.37-3.13.74-5.88,1.42-8.65,2-5.11,1.12-6.52,4.85-3.25,8.94.91,1.14,2.28,1.9,3.29,3a39.18,39.18,0,0,1,2.58,3.28l-4.29,1.51c1.71,1.19,3.2,2.7,5,3.36,3.57,1.3,7.69,1.46,10.89,3.3,4.9,2.82,8.84,7.47,13.89,9.82,4,1.9,4.8,5.22,6.54,8.25,1.26,2.18.25,4.64-1.64,4.6-2,0-11.31-7.29-11.25-9.39.19-5.85-4-7.92-8.11-9.78-3.61-1.62-7.31-4-11.5-2.69-3.58,1.07-5.56-.41-7.31-3.18a5,5,0,0,0-2.44-2.25c-8.1-2-16.21-4.08-24.4-5.75-5.13-1-10.35-1.56-14.06-5.66,2-6,6.17-7.1,12-6.67,4.71.36,9.55-.82,14.32-1.44,6.28-.81,12.31-4.35,18.94-1.41,1,.43,2.75-.15,3.81-.8,3.14-1.93,3.48-7.6,1.16-10.47-1.79-2.21-4-2.84-6.6-3.35-5.52-1.07-11-2.31-16.5-.22a13.16,13.16,0,0,1-3.56.92c-5.79.46-11.58.81-17.42,1.2ZM2476.32,47c-5,1.3-9.15,4-9.44,7.18s-2.33,3.8-5.13,5.42c.95-2.47,1.94-4.1,2.14-5.81s.26-4.13-.7-5.47c-1.73-2.44-3.37-4.36.83-6.94-5-2.63-8.42-6.86-14.3-5.92a24.09,24.09,0,0,1-4.8,0c-6.28-.28-12.56-.65-18.84-.81A7,7,0,0,0,2422,35.7c-3,2.3-6,2.15-9.41,1.06a26.21,26.21,0,0,0-7.15-1.17c-3.43-.11-6.88.15-10.32.32-2.45.12-4.91.57-7.34.45-1.95-.09-4.45-.23-5.61-1.42-.86-.89,0-3.49.19-5.32a4.19,4.19,0,0,1,.68-2.44c1.5-1.39,3.4-3.73,4.84-3.54,5.15.7,8.1-2.44,11.24-5.3,3.89-3.55,3.16-6.26-2.65-7.9,3.51,0,6.2.11,8.9.05,2.5-.06,3.07,1.14,2.31,3.27s-1.51,4-2.29,6.06l14.1,2.18-2.28,5.54.42.2,2.6-3.56c3.1.85,5.74,1.67,8.43,2.28,4.16.94,8.34,1.78,12.54,2.56,2.6.48,4.44-.56,4.8-3.29a50,50,0,0,0,.09-5.83,23.57,23.57,0,0,0,3.71,1.27c2.71.46,5.51,1.19,8.19.95,3.32-.3,4.12-2.95,2-5.59a17.52,17.52,0,0,0-2.45-2.08C2467.72,16.87,2479.18,37,2476.32,47Zm-54,10.43c-2.62,1.73-7.38,1-5.22,6.11.12.27-.93,1.48-1.53,1.56-3.94.57-6.17,2.31-6,6.12.15,3.3-1.41,5.38-3.38,7.4-2.91,3-4.77,6.24-3.33,10.71-.56-.28-.8-.7-1.15-.92-3.93-2.42-8-4.6-8.87-9.88-.08-.56-1.52-1.14-2.41-1.32-5.8-1.2-11.62-2.22-17.41-3.45a26.8,26.8,0,0,1-4-1.67c-1.27-.49-2.58-.91-3.87-1.35-1.1-.37-2.2-.72-3.3-1.08.47-1.08.68-2.38,1.44-3.18,3.34-3.53,6.84-6.91,10.42-10.49,4.4,4.14,10.29,5.84,16.43,6.84,2.85.46,5.11-.28,5.89-3.58.22-.93,1.11-2.29,1.86-2.4a94.65,94.65,0,0,1,14.29-1.57C2415.41,55.26,2418.66,56.58,2422.34,57.41ZM2349.85,89.1l-1.3-.5c1.28-2.42,2.26-5.1,4-7.17,1.16-1.4,3.42-2.8,5.08-2.69a29.92,29.92,0,0,1,9.58,2.44A87.76,87.76,0,0,1,2381,88.25a53.82,53.82,0,0,1,10.08,9c1.54,1.71,1.86,5-1,5.9-2.27.76-5.11.24-7.59-.23a38.78,38.78,0,0,1-7.72-2.54c-2.64-1.13-5.45-2.21-7.59-4s-3.81-2.82-6.55-2.43c-3.31.46-6.42.2-8.09-3.54C2352.21,89.69,2350.77,89.51,2349.85,89.1Zm-123.7-23.26c-1.12,1.94-3.92,2.57-7.39,2.18-3.06-.36-4.91,1.57-6.16,4.34a27.25,27.25,0,0,1-3.17,4.43,50.49,50.49,0,0,1-4.81-4.05,12.28,12.28,0,0,1-2.52-4c-.92-2.48.45-4.83,2.67-5.07,3.34-.37,5.08-2.91,3.68-5.85-.92-2-1.76-3.75.25-5.26s4.37-1.36,6.39.49a27.41,27.41,0,0,0,2.59,2.08c1.63,1.17,3,2.27,1.18,4.47-.29.36.5,2.38,1,2.48a23.14,23.14,0,0,0,4.85,0c1.51-.05,3.82-.76,4.4-.05,1.72,2.11,3.39,1.23,5.3.89,3.09-.55,5.82,0,7.29,2.43-2.59,0-5-.12-7.45,0S2229.57,65.58,2226.15,65.84Zm147.19-49c-.84,4.55-1.77,9.52-2.7,14.5l1,.51c1.44-9.84,8.72-13.94,16.32-18.54-4.67,8.44-8.89,16.27-13.43,23.91-.43.73-3.12.83-4.31.27-2.45-1.15-4.6-2.94-7-4.58l2.34-4.54c-4.31-2.11-5.06-4.18-2-6.41s3-3.9.06-5.92c1.69-2.66,3.38-3,5.67-1.24A25.22,25.22,0,0,0,2373.34,16.83Zm-36.66,52.25-.24,1.72c-1.66,0-3.32.1-5-.07-1.83-.2-3.66-1.06-5.43-.92-5.09.39-9.73,0-12.66-4.92-.57-1-1.62-2.37-1.3-3,.48-1,2.07-2.16,3-2,4.83.8,9.59,2,14.36,3,1,.21,1.89.58,2.84.88L2331,65.34l-3.07,1.18Zm-80.07-22.62,1.22.47a31.3,31.3,0,0,1-4,4.08c-.63.47-2.18.24-3-.22a51.08,51.08,0,0,1-5.18-3.81c.45-.61,1.07-2.4,2-2.6a14.27,14.27,0,0,1,5.68.37A13.29,13.29,0,0,1,2256.61,46.46Zm-32.92,37.61c-3,2.45-10.77.5-11.89-2.68a2.26,2.26,0,0,1,.27-2,2.7,2.7,0,0,1,2.31-.39C2217.49,80.57,2220.51,82.32,2223.69,84.07Zm126.76-63.35c-.19,2.49,5.51,3.71.7,6.26-2.1,1.12-4.82,1.69-5.72-.79C2343.89,22,2348.46,22.66,2350.45,20.72Zm-13.62,53.35c4.26-1.29,7.7-.08,8.84,3.12C2340.24,78,2337.59,77.06,2336.83,74.07Zm25.05-55.79-6.72.85a14.9,14.9,0,0,1,0-1.87c2-.25,4-.38,6-.51A16.29,16.29,0,0,1,2361.88,18.28Zm-103.82,52.6a29.34,29.34,0,0,1,2.23,3.57c.06.16-1.38,1.36-1.63,1.22a18.76,18.76,0,0,1-2.83-2.32Z"/><path class="cls-69" d="M2472.35,68.09l-10,13.57c-2.12,2.88-4,5.84-3.26,10.84,1.32-1.88,2.16-3,2.93-4.18,2.47-3.77,4.88-7.59,7.39-11.33,1.27-1.89,2.94-3.53,3.94-5.53.37-.72-.71-2.16-1.12-3.28Z"/><path class="cls-69" d="M2320,42.74c.3.23,1,1.24,1.73,1.23,2,0,4.88-4.66,4.27-7a4,4,0,0,0-2.46-2.56C2321.62,34,2319.66,38.33,2320,42.74Z"/><path class="cls-70" d="M2195.61,79.57l-2.77-3.83a7.77,7.77,0,0,0,2.55,5.07c4.4,4.19,12.1,4.08,16.94-.2,2.78-2.46,4.36-5,6.56-10.27-1,5.3-3.41,10-9,12.72-5.37,2.63-9.85,2.1-15.05-1.35,1.9,3.12,6.13,4.27,13.7,3.78a19.1,19.1,0,0,1-10.93-.37c5.49,3,11.15,2.17,16.83.48-7.42,2.89-14.53,3.11-21.13-2.1,1.63,2.81,6,4.86,10.47,5.3,7.73.76,14-2.24,19.53-6.43a32.34,32.34,0,0,0,13.25-22.78c.15-1.2.3-2.41.56-3.6a28.36,28.36,0,0,1-3.91,16.19c-4.77,8-11.78,14-21.81,16.58-7.17,1.81-13.94.91-19.14-4.38a2.2,2.2,0,0,0-.53-.25c3,6.42,12.47,8,26.67,4.9a73.38,73.38,0,0,1-7.26,1.82c-6.86,1-13.27.42-18.42-4.29-4.31-4-5.61-8.51-3.81-13.78.42-1.22,1-2.39,1.5-3.52-3.08,2.82-3.89,9.17-1.59,13.55,3.18,6,9,8.86,16.25,9.53,9.23.86,17.5-1.82,25.3-5.94,1.31-.69,2.6-1.43,3.9-2.13,0,0,.12,0,.2,0s.07.24,0,.27c-6.89,4.37-14.39,7.49-22.88,8.25s-16.11-.7-21.77-6.84c2.67,4.25,6.93,6.59,12.17,7.61a41.2,41.2,0,0,0,20.9-1.37c9.18-3,16.87-7.92,23.92-13.82a107.25,107.25,0,0,0,24-28.31,3.73,3.73,0,0,1,1.15-1.32,3.57,3.57,0,0,1-.26.78A104.34,104.34,0,0,1,2243.72,82c-8.06,6.09-17,10.78-27.46,12.62-7.45,1.31-14.83,1.08-21.56-2.48-7.37-3.89-10.77-11.11-8.83-18.52a1.05,1.05,0,0,0-.18-1.12,30.89,30.89,0,0,0-1,3.85c-.86,7.4,4.39,15.22,12.18,18.11,8.8,3.26,17.73,2.83,26.64.18,2.81-.84,5.46-2.11,8.18-3.18a13.29,13.29,0,0,1,1.64-.58c-8.55,5.32-27.62,10.44-42,2.42a59.61,59.61,0,0,0,5.49,3.16c5.65,2.54,11.76,2.65,17.89,1.92A60.17,60.17,0,0,0,2240.17,89c7.2-4.6,13.94-9.76,20.92-14.63,9.1-6.34,18.86-11.7,30.19-14.18,14.26-3.13,28-1.58,39.86,6,9.06,5.8,13.54,14.09,11.31,24.42-.1.47-.32.91-.15,1.32-.14-3.42.31-7-.53-10.23-2.2-8.6-8.2-14.76-17.37-18.29-13.91-5.37-27.87-5.2-42,.19-9.16,3.51-16.88,8.75-24.44,14.3-3.62,2.65-7.13,5.41-10.62,8.23,10.25-6,19.19-13.87,31.2-17.42a29,29,0,0,0-4.16,1.69c-6.46,3.82-13,7.5-19.22,11.66-8.22,5.54-16.65,10.65-26.21,14.26a53.22,53.22,0,0,1-29.56,2.93c1.51.39,3,.88,4.52,1.16,9.75,1.79,18.87-.26,27.65-4,3.63-1.53,7.13-3.31,10.69-5,3.65-2.23,7.24-4.56,11-6.67,6.26-3.53,12.51-7.1,19-10.29,3.46-1.71,7.38-2.66,11.09-4l.19.45c-2.89,1-5.82,1.87-8.67,2.92-7.45,2.72-13.83,7-20.54,10.85-4,2.25-7.88,4.59-11.82,6.89-10.63,6-21.77,10.79-34.81,10.09-16-.87-28-14-25.19-27.47.35-1.71,1.13-3.36,1.54-5.14a18.94,18.94,0,0,0-1.24,2,18,18,0,0,0-.42,14.14c3.75,10.14,13.46,16.67,25.71,17.53A52.52,52.52,0,0,0,2230,99.58c6-2.2,12.09-4.38,18.12-6.61a64.26,64.26,0,0,1,25.39-4.19c-11.13-.25-21.19,3.14-31.22,6.94-7.26,2.74-14.42,5.82-22.29,7.14a43,43,0,0,1-22.25-1.64c-.38-.14-.77-.24-1.17-.35-.05,0-.12,0-.18,0,2.28,1.75,7.07,3,12.24,3.43,7.13.6,13.95-.68,20.69-2.57,8.08-2.26,16-5.1,24.27-6.64a81.76,81.76,0,0,1,36,1.08l-.06,0c7.65,1.33,14.42,4,19.32,9.91-.86-2.52-1.2-2.87-7.11-7.68a17.73,17.73,0,0,1,9.09,8.33c-3-8.18-10.64-11.58-19.15-14.07,7.46,1.5,14,4.39,18.54,10l.42-.27a18.58,18.58,0,0,0-2.19-3.07,30,30,0,0,0-12.88-7c-.72-.2-1.42-.42-2.13-.63l.23-.53,10,3.5a21.77,21.77,0,0,0-9.48-4c-3.28-.46-6.67-.39-10.05-.61a30.15,30.15,0,0,0,12.17-4.33c-5.47-7.72-16.59-9.34-24.59-3.69-2.77,2-5.47,4-9.13,4.61-.4.07-.81.16-1.22.21a1.14,1.14,0,0,1-.68-.2c4.82-.85,7.92-4,11.63-6.39a21.93,21.93,0,0,1,8-2.88c9.74-1.64,18.13.51,24.58,7.4-1.24-2.62-3.53-4.36-6.13-5.82-1.26-.7-2.59-1.3-3.89-1.94l-9.75-1.38c3.33,0,6.66,0,9.72,1.42,4.36.72,7.55,3.06,10.4,5.85l.42-.28-3.65-4.26.16-.17,4.36,3.75c-2.28-5.64-7.45-6.74-12.95-7.61,4.14-1,10.5,1.22,13.12,4.31a45.28,45.28,0,0,0,4.31,3.95l.75-.5c-.56-.88-1.05-1.79-1.69-2.62s-1.42-1.57-2-2.44a11.07,11.07,0,0,1,5.47,7.32c.66-2.9.07-3.89-5.46-9.89,4.45,2.7,7.18,6.25,7.14,11.17.93-6.3-3.06-10.17-8.54-13.33,5.78,1.93,8.72,5.84,10,11,.5-4.75-2.58-8-6.13-11,3.12.68,6.3,4.73,7.76,9.58-.28-5.41-3.11-9-7.75-11.57a13.57,13.57,0,0,1,7.34,5.72c-.15-4.82-6.16-7.44-18.21-8.09l0-.53c2.09-.08,4.18-.22,6.28-.24,6.61-.06,13.17.08,19.27,2.75,7.81,3.41,12.35,8.9,13.85,16.42.06.28.13.56.2.84l.7-.16c-.75-2.43-1.19-5-2.3-7.25-3.92-8.08-11.53-12-21-13.34-4.53-.63-9.2-.51-13.1-.69,9.81-1.26,19.72-.2,28.25,5.85a20.8,20.8,0,0,1,8.32,12.68c1.09,4.62-.37,8.74-3.58,12.38-1.11,1.27-2.88,2.1-4.35,3.13l-.51-.47c.27-.36.54-.72.8-1.09a4.31,4.31,0,0,0-.33-5.93,6.23,6.23,0,0,0-6.44-1.93c-5,1.23-7.08,6.25-4.19,10,4.09,5.29,13.73,5.94,19.53,1.27,5-4,6.83-9.25,7.14-15,.65-12.31-8.64-28.81-28.07-33.31a9.77,9.77,0,0,0-2.41,0,31.24,31.24,0,0,1-6.19-.16c1.74-.29,3.48-.57,5.22-.89a2.52,2.52,0,0,0,1.41-.84l-3.39-.22,0-.45h6.42l0-.68c-1.91-.09-3.83-.29-5.74-.24s-4,.34-6.27.55c4.91-1.74,9.68-1.32,14.47-.82l.05-.64-6.34-.73v-.29l8.41.14c-6.21-1.66-12.1,0-18,1.3a34.66,34.66,0,0,1,19.28-2.41l0-.52c-1.3-.19-2.6-.44-3.91-.55s-2.88-.14-4.34-.39l7.15-.29c-6.35-1.08-12.33.2-18.67,2.68,2.78-2,6.91-3.11,15.22-4.45-5.09-.55-9.73,1.11-14.37,2.73l-.2-.51,9.65-3.36a60,60,0,0,0-15.37,4.36c2.57-1.77,5.52-3.18,7-6.23l-8.26,5.55-.27-.27,8.21-6.32-.34-.36L2302,43.47l-.27-.3L2307,39l-.3-.37-5.26,3-.24-.31,4.32-3-.23-.31-7.25,4.39-.3-.38,8.76-5.7-.1-.23a31.6,31.6,0,0,0-4.81,2.23,61.21,61.21,0,0,0-8.15,6.28c-2.76,2.67-5.78,4.53-9.92,4.85-1.15.09-2.29.37-3.51.44,3.79-1.9,8.88-1.7,11.41-5.45L2283.24,48l-.29-.46c3.88-1.64,7.86-3.17,10.3-6.52l-5.36,3.47-.19-.24,6.86-5.78-.43-.4-3,2.62-.43-.31,3.4-3.72-.29-.23-6.38,5.47-.3-.27,3.92-3.78-.22-.22-2.18,1.5-.15-.11,2.1-1.42-.45-.5-2,.27c3.22-1.31,5.52-3.25,6.58-6.57l-5.91,4.09c2-2.49,4.89-4.27,6.74-6.81l-.42-.35-5.29,4.18-.41-.34,6.67-5.82-.56-.53-5,3.57-.26-.24,6.57-5.46c-4.31,1.73-7.36,4.68-10.52,7.55a39,39,0,0,1,11-9.8c-5.43,2-9.52,5.58-13.57,9.21a43.13,43.13,0,0,1,11.3-9.7c-5.79,1.69-9.86,5.23-13.2,9.58l-.43-.29c1.37-1.58,2.63-3.26,4.16-4.72s3.35-2.72,4.91-4.17c-6.16,2.21-9.57,6.72-12.46,11.71a25.13,25.13,0,0,1,6.17-9.29c-3.8,1.63-5.78,4.56-7.56,7.71l1.59-4.36-.51-.17L2275.19,31l-.43-.17c1.16-2.3,2.33-4.59,3.5-6.89l-.34-.2-4,5.11-.42-.21,4.53-6.51c-2.83.76-8.66,9.36-8.71,13.17l.92-1,.17.08c-.19.88-.4,1.77-.71,3.11l1.3-1.8c-.73,2.91-1.33,5.95-2.29,8.9s-2.83,4.18-6.06,4.3c1.44-.79,2.84-1.12,3-2.8.14-1.17,1.39-2.25,1.79-3.56-1.3,1.59-2.61,3.17-3.91,4.75l-.12-.09c1.45-2.54,2.89-5.07,4.32-7.61.07-.12-.07-.33-.14-.63L2265,42.5l-.29-.13,1.86-3.55-.37-.22-2.68,3.18-.34-.14,2.61-4.33c-2.84,2-3.79,4.52-5,6.87l-.48-.19,3.54-7.15c-3,2.77-3.85,6-5,9l-.53-.14,2.51-7.43-.25-.11-2.95,5.89.18-2.19-1.22,1.28,2.21-7.84c-2.42,3.2-2.86,6.84-3.49,10.43-.44-3.65.5-7.12,1.88-10.54a3.11,3.11,0,0,0,0-2.11c-2.22,5-3.75,10.14-3.38,15.55-1.22-5.56.77-10.83,1.69-16.28-.55,1.23-1.17,2.45-1.62,3.72a33.3,33.3,0,0,0-1.08,3.91c-.31,1.34-.54,2.71-.8,4.06l-.61-.08c.61-3.15,1.23-6.29,1.82-9.34-2.4,1.53-3.3,6.08-2.87,14.41-1.12-3.77-.76-7.59-.14-11.74a5.89,5.89,0,0,0-1.77,5.21c.25,3,.86,6,1.31,9a10,10,0,0,1,.11,3l-2.48-11-.57.09c.49,2.19,1,4.38,1.44,6.58a61.17,61.17,0,0,1,1,6.56l-1.81-6.89-.23,0c.26,2.46.89,4.94.7,7.37a22.62,22.62,0,0,1-1.92,7.63,25.63,25.63,0,0,1-4.84,6.34c3.17-4,5.62-8.22,5.53-13.24-1.1,3.84-2.44,7.57-5.41,10.72,3.35-5.86,5.87-11.84,3.74-18.49.39,5-.12,9.95-3.14,14.48,2.21-5.35,3.12-10.74,1-16.24a19.2,19.2,0,0,1-1.16,11.68c1.24-5.37,1.35-10.61-1.69-15.54l1.07,9.59-.71.08c-.35-4.52-.73-9-4.22-12.68l2.26,6.81-.31.07-3.05-6.42-.51.18,1.67,5.3c-1.41-2.72-2.57-5.5-5.35-7.45,3,4.49,5,9.24,4.35,14.61-.49-5.43-2.05-10.47-6.47-14.51,2.74,4.21,4.61,8.62,4.33,13.6-.79-3.89-1.53-7.8-4.62-11,1.86,4.87,3.87,9.72,3.23,14.62-.88-3.4-1.84-7.14-2.8-10.88l-1,.16a17.84,17.84,0,0,0,.37,2.75,55.36,55.36,0,0,1,1.81,7l-2.5-6.46-.86.18a7.8,7.8,0,0,0,.42,2.24c2,3.81,3.19,7.74,2.82,11.65-1-3.45-2.16-7.21-3.28-11l-.91.17a5.16,5.16,0,0,0,.26,1.48A24.67,24.67,0,0,1,2228.42,66c0,3.28-1.63,5.95-4.52,8.06,2.58-3.22,3.39-6.6,1.35-10.66a33.58,33.58,0,0,1-.1,4.91,15.26,15.26,0,0,1-1.69,4.47c1.13-4.05,1.69-8-.69-11.8l.87,7.15-.26,0-2-8-.53.1.95,4-.18,0-2.93-5.83-.48.18,1.54,4.71-.28.09-3.3-5.52-.51.18c1.33,2.5,2.63,5,1.78,7.86l-1.08-4.61-.6.07.15,3.83-.49.05-.36-2-.45,0L2214,72l-.56,0c.07-2,.15-3.92.22-5.88l-.78-.07c-.32,1.69-.71,3.37-.94,5.08-.37,2.75-.74,5.53-3.25,7.53a10,10,0,0,1-14.6-2.27l1.5,3.19c1.9.88,3.71,2.15,5.74,2.54s4.35-.07,6.77-.17c-1,.29-1.86.57-2.71.76C2202.3,83.4,2196.54,82.06,2195.61,79.57Zm129.24,22c-3.47-2-4.12-6.33-1.32-8.82,1.91-1.69,5.53-1.88,7.41-.39s2.08,3.59.17,5.54a12.63,12.63,0,0,0,.7-2.18c.22-1.84-1.4-3.51-3.6-3.81a5.06,5.06,0,0,0-5.54,3.27c-.73,2.52.36,4.5,2.35,6.21,4.93,2.54,9.73,2.12,14.45-.57a19.69,19.69,0,0,0,7.13-15.61c-.06-4.45-.83-8.76-3.58-12.62a12.23,12.23,0,0,0,.52,1.72A23.43,23.43,0,0,1,2346,86.16a65.06,65.06,0,0,1-1.48,7.35l-.76-.1a18.33,18.33,0,0,0,1.52-11.62c-.87-3.8-2.4-7.47-3.49-10.77l1.35,1.6c-1.57-3.77-4.29-6.84-7.37-9.73-1.73-1.63-3.29-3.4-4.93-5.11l-.65.62a1.44,1.44,0,0,1,.38.06c11.18,5.85,18.6,19.79,16.39,31.15a16.31,16.31,0,0,1-7.38,11.25C2336.16,104.1,2328.82,104.44,2324.85,101.54Zm12.83-4.66a4.08,4.08,0,0,1-4.45,3.3l4.48-3.29c.36-.65.68-1.32,1.08-1.94a14.82,14.82,0,0,0,1.87-12.06c-2-8.31-8-13.81-16.55-17.28a43.82,43.82,0,0,0-8.07-2.26c-2.75-.54-5.59-.7-8.39-1,10-.42,18.87,2,26,8.11,5.87,5,9,11.35,7.87,18.79C2341.1,92,2340.29,94.84,2337.68,96.88Zm0,3.88a20.62,20.62,0,0,1-2.51,1.13c-4.17,1.38-8.59.32-10.75-2.53-1.66-2.18-1.25-5.13,1.16-6a7.11,7.11,0,0,1,4.22.2c.7.24.93,1.53,1.37,2.34l-.5.21c-.51-2.11-2.07-3.16-4-2.68a3.28,3.28,0,0,0-2.44,4.38,6.63,6.63,0,0,0,6.19,4.1A56.92,56.92,0,0,0,2337.67,100.76ZM2320.41,65.1c-3.62-.35-7.49-.94-11.39-1s-7.86.26-11.79.42C2306.24,63,2316.55,63.41,2320.41,65.1Zm-63.77-8.54c-.46,3.27-3.85,10.34-5.7,12Zm70.61,37c-.82,1.35-1.85,2.28-1.81,3.17s1,2,1.51,3c-1.78-.93-2.72-2.26-2.08-3.73C2325.24,95.16,2326.29,94.53,2327.25,93.59Zm-34-8.4,0,.56-8.9-.5v-.17Zm-15.25-3-.06-.24,8.26-1.61.12.56Zm14.55,1.57-.05.59-7.34-.54,0-.34Z"/></g></g></g></svg>