<svg xmlns="http://www.w3.org/2000/svg" viewBox="0 0 2363.33 129.82"><defs><style>.cls-1{fill:#fedc80;}.cls-2{fill:#fed76d;}.cls-3{fill:#fed86e;}.cls-4{fill:#fef5dc;}.cls-5{fill:#fed976;}.cls-6{fill:#fef5db;}.cls-7{fill:#fecf52;}.cls-8{fill:#fed054;}.cls-9{fill:#fed15a;}.cls-10{fill:#fed463;}.cls-11{fill:#fed974;}.cls-12{fill:#fecf50;}.cls-13{fill:#fed157;}.cls-14{fill:#fed568;}.cls-15{fill:#feda7a;}.cls-16{fill:#fed973;}.cls-17{fill:#fedb7d;}.cls-18{fill:#fed872;}.cls-19{fill:#fee8ae;}.cls-20{fill:#fedd84;}.cls-21{fill:#fecf53;}.cls-22{fill:#feedbe;}.cls-23{fill:#feda78;}.cls-24{fill:#fed053;}.cls-25{fill:#fee49e;}.cls-26{fill:#fed056;}.cls-27{fill:#feeec5;}.cls-28{fill:#feecbb;}.cls-29{fill:#fef4d7;}.cls-30{fill:#fedf8b;}.cls-31{fill:#fee296;}.cls-32{fill:#fee399;}.cls-33{fill:#fef7e4;}.cls-34{fill:#fedb7c;}.cls-35{fill:#fee08c;}.cls-36{fill:#fed86f;}.cls-37{fill:#fee192;}.cls-38{fill:#fee8ab;}.cls-39{fill:#fed669;}.cls-40{fill:#fef2d3;}.cls-41{fill:#fee08f;}.cls-42{fill:#fedf8d;}.cls-43{fill:#fed870;}.cls-44{fill:#fee193;}.cls-45{fill:#fecb40;}.cls-46{fill:#feeab4;}.cls-47{fill:#fee49f;}.cls-48{fill:#fedd83;}.cls-49{fill:#fede88;}.cls-50{fill:#feefc8;}.cls-51{fill:#fee9b0;}.cls-52{fill:#feeab3;}.cls-53{fill:#fed158;}.cls-54{fill:#fee6a5;}.cls-55{fill:#fee7ab;}.cls-56{fill:#fecc43;}.cls-57{fill:#fee08e;}.cls-58{fill:#fedc81;}.cls-59{fill:#fed360;}.cls-60{fill:#fed156;}.cls-61{fill:#fed055;}.cls-62{fill:#fef0c9;}.cls-63{fill:#fedb7b;}.cls-64{fill:#fedc7f;}.cls-65{fill:#fede87;}.cls-66{fill:#fed25d;}.cls-67{fill:#fed975;}.cls-68{fill:#fecd48;}.cls-69{fill:#5a2f88;}.cls-69,.cls-70{stroke:#fbb90f;stroke-miterlimit:10;}.cls-70{fill:#fff;stroke-width:0.75px;}</style></defs><g id="Calque_2" data-name="Calque 2"><g id="Calque_1-2" data-name="Calque 1"><path class="cls-1" d="M1278.16,97.44l-14.43,0a319,319,0,0,1-58.47-.08l-42.66.27a266.49,266.49,0,0,1-48.84-.13c-2.81,7.87,3.94,4.33,5.88,4.36,23,.31,45.95.21,68.93.17,26,0,52.06,0,78.09-.18,55.83-.3,111.66-.16,167.48-.52,53-.34,105.95,0,158.93.12,26.8,0,53.67-.49,80.49.54,2,.07,3.92,0,6.48-3.67-11.75-2-22.63-1.08-33.46-.92a248.45,248.45,0,0,1-48.93.19l-14.48-.18c-11.6,1.92-23.21,1.44-34.83.21l-16.87-.18a74.69,74.69,0,0,1-27.92,0l-9.64,0a102.68,102.68,0,0,1-32.59,0h-5a34.65,34.65,0,0,1-18.49,0l-7.47.2c-32.72,1.27-65.45,1.48-98.17-.09l-5.11,0c-5,1.94-10.14.47-15.21.93C1300.65,97.83,1289.35,99.67,1278.16,97.44Z"/><path class="cls-2" d="M1228.53,40.23l-298-.14c-1.54,1.47-1.55,2.92.07,4.33q110.29.22,220.6.43c25,0,50-.2,75.08-.31C1227.58,43.38,1229.89,42.78,1228.53,40.23Z"/><path class="cls-3" d="M1994.22,44.51l2.41-.09c1.39-1.38,1.4-2.75,0-4.12l-204.08-.06c-1.62,1.39-1.6,2.83-.14,4.32l79.85-.07a121.22,121.22,0,0,1,35.07,0l2.5,0a105.53,105.53,0,0,1,32.71,0l4.86.05A214.3,214.3,0,0,1,1994.22,44.51Z"/><path class="cls-4" d="M1331.84,44.57l136.37.12a3.26,3.26,0,0,0,.06-4.74L1331.85,40A3.24,3.24,0,0,0,1331.84,44.57Z"/><path class="cls-5" d="M1029.14,97.36l-14.45.2c-6.15,1.33-12.3,1.61-18.43-.19l-28.51.15c-5.38,1.36-10.75,1.65-16.11-.15l-4.9,0a257,257,0,0,1-51.43.09c-4.19,0-8.52-1.53-12.55,4.22h172.07a1.9,1.9,0,0,0-1-3C1045.61,97.65,1037.26,99.78,1029.14,97.36Z"/><path class="cls-6" d="M791.81,44.67l115.08,0a3.23,3.23,0,0,0,.05-4.73L794.12,40C792.83,41.28,790.36,42,791.81,44.67Z"/><path class="cls-7" d="M1811.19,97.44h-43.48c1.47,6,5.36,4.14,7.87,4.14q69.78.26,139.55.06c2.63,0,6.78,2,7.62-2.64.35-1.94-2.24-1.47-3.7-1.55-31.34,2.2-62.71.44-94.07.92C1820.4,98.43,1815.68,99.37,1811.19,97.44Z"/><path class="cls-8" d="M850.64,97.51H784c0,1,0,2,0,3h93.56c-1.5-4.92-5.42-2.71-8.32-3A39,39,0,0,1,850.64,97.51Z"/><path class="cls-6" d="M1494.09,44.72l84.6-.13a3.15,3.15,0,0,0,0-4.53L1494,40A3.25,3.25,0,0,0,1494.09,44.72Z"/><path class="cls-9" d="M655.73,97.51c-2,8.57,4.95,4,6.89,4,28.81.32,57.63.13,86.45.07h22.78l.09-4.17H730.65A589,589,0,0,1,655.73,97.51Z"/><path class="cls-10" d="M601.67,97.39l-26.06.09a21.21,21.21,0,0,1-13.85-.06c-4.82.07-9.76-1.23-14.43,2.77h97.34c-8.75-4.49-17.84-2.61-26.81-2.63C612.45,98.83,607.05,99.19,601.67,97.39Z"/><path class="cls-11" d="M542.78,40.18H474c0,1.43,0,2.87,0,4.3H542.8C544.25,43,544.25,41.61,542.78,40.18Z"/><path class="cls-12" d="M256.45,97.43l-33.08,0a28.47,28.47,0,0,1-16.23.08c-5.84.6-11.89-1.71-18.44.49,5.53,7.7,12.33,2.53,17.63,2.76,24.68,1.06,49.47,2.9,74.13-.84C272.74,96.23,264.24,100.37,256.45,97.43Z"/><path class="cls-13" d="M1696.16,97.57c-3.58,2.4-1.76,4,1,4,19.66.19,39.32.1,59,.1,0-1.41.07-2.83.11-4.24h-48.61A15.55,15.55,0,0,1,1696.16,97.57Z"/><path class="cls-7" d="M1811.19,97.44a545.23,545.23,0,0,0,107.86,0Z"/><path class="cls-14" d="M1332.2,97.53c2.07,2.4,4.89,2.09,7.59,2.09l84.12-.06c2.34,0,4.7.06,6.46-1.94C1397.65,96.53,1364.92,96.59,1332.2,97.53Z"/><path class="cls-1" d="M1054.89,99.67c0,.66,0,1.31-.06,2,14.44.13,28.88.44,43.31.16,1.91,0,8.91,3.66,5.9-4.41a19.5,19.5,0,0,1-13.85-.06l-30.84.17C1058.18,98.89,1055.86,97.85,1054.89,99.67Z"/><path class="cls-15" d="M431.5,44c12.1,1.55,24.2,1.13,36.29,0,0-1,0-2,0-2.94H431.48Z"/><path class="cls-7" d="M655.73,97.51c16.44,4.5,33.19,1.45,49.79,1.83,8.31.2,17.07,2.64,25.13-1.91Z"/><path class="cls-16" d="M1996.63,40.3v4.12c12.11.34,24.25,1.28,36.24-.27,0-1.28,0-2.57,0-3.85Z"/><path class="cls-17" d="M303.59,97.6c-2.62-.13-5.35-1.48-7.86.62,6.09,4.49,26.88,5.54,43.21,1.79-8.49-4.89-16.43-2.45-24-2.6C311.16,99.13,307.39,98.83,303.59,97.6Z"/><path class="cls-18" d="M2064.77,44.42l37.46.11c1.43-2.64-.9-3.27-2.28-4.41l-35.18.14C2063.37,41.65,2063.38,43,2064.77,44.42Z"/><path class="cls-19" d="M1273.49,40.29l-38-.09c-1.35,1.09-3.33,1.83-2.2,4.24l40.22-.15A2.74,2.74,0,0,0,1273.49,40.29Z"/><path class="cls-6" d="M1707.68,44.6l35.5,0a3.28,3.28,0,0,0,0-4.56l-35.52.06A3.15,3.15,0,0,0,1707.68,44.6Z"/><path class="cls-8" d="M507,99.32c10.72,2.49,21.44,3.4,32.13.22C528.47,95.58,517.71,97.44,507,99.32Z"/><path class="cls-20" d="M501,99c-10.53-2.14-21.05-2.55-31.43.53A55.66,55.66,0,0,0,501,99Z"/><path class="cls-21" d="M1205.26,97.31a154.56,154.56,0,0,0,58.47.08Z"/><path class="cls-22" d="M723.58,44.4l26,.2c1.4-3,7.66,1.59,7-4.63l-33,.24A2.8,2.8,0,0,0,723.58,44.4Z"/><path class="cls-8" d="M1930,99.59c8.44,2.5,16.86,3,25.19-.12C1946.79,96.14,1938.39,96.41,1930,99.59Z"/><path class="cls-23" d="M2064.77,44.42V40.26c-8.7-.12-17.51-1.91-26.13,4.16Z"/><path class="cls-24" d="M2008.47,97.44c17.93,3.65,35.87,3.35,53.81.09Z"/><path class="cls-25" d="M1289.68,44.44l28.22.25a3.1,3.1,0,0,0,0-4.63l-26,.13C1290.55,41.28,1288.51,42,1289.68,44.44Z"/><path class="cls-8" d="M895.31,97.42a122.64,122.64,0,0,0,51.43-.09Z"/><path class="cls-26" d="M1113.76,97.45c16.27,3.74,32.56,3.27,48.84.13Z"/><path class="cls-7" d="M1597.65,97.54c16.32,3.25,32.63,3.74,48.93-.19Z"/><path class="cls-19" d="M702.57,40.18l-26,0a3.11,3.11,0,0,0,.15,4.58l23.63-.39C701.8,43.32,703.78,42.61,702.57,40.18Z"/><path class="cls-27" d="M756.56,40l-7,4.63,26-.14c1.36-1.18,3.52-2,2.16-4.48Z"/><path class="cls-28" d="M906.94,40l-.05,4.73q11.86-.12,23.74-.27c0-1.44,0-2.89-.07-4.33Z"/><path class="cls-29" d="M1637.35,40l-26,.07c-.72.54-.94,1-.67,1.54s.52.72.78.72c7.58,4.29,15.78,1.81,23.71,2.27C1636.46,43.29,1638.73,42.52,1637.35,40Z"/><path class="cls-2" d="M1994.22,44.51a102.56,102.56,0,0,0-46.82,0Z"/><path class="cls-25" d="M702.57,40.18l-2.18,4.15,23.19.08V40.2Z"/><path class="cls-30" d="M1611.45,42.28a15.48,15.48,0,0,0-.11-2.26l-23.24.18c-1.49,1.43-1.48,2.88,0,4.35C1595.93,44.63,1604,46.62,1611.45,42.28Z"/><path class="cls-31" d="M585,44.33h19.88c-6.76-7.28-14.94-1.69-22.07-4.26C581.49,42.57,583.53,43.3,585,44.33Z"/><path class="cls-17" d="M279.73,40.28c-6.65,0-13.46-1.63-19.86,2,6.42,3.81,13.27,2.24,19.94,2.33C281.2,43.15,281.22,41.7,279.73,40.28Z"/><path class="cls-32" d="M1637.35,40l-2.19,4.6,20.94.13a3.05,3.05,0,0,0,0-4.57Z"/><path class="cls-33" d="M345.59,44.68c7.86,3.84,15.75,3.51,23.65.18l-.79-1.19c-1.83-1.47-4.51-1.41-6-3.48L355,39.9c-1.77,2.36-4.49,2.32-7,2.86A5.7,5.7,0,0,0,345.59,44.68Z"/><path class="cls-32" d="M279.73,40.28c0,1.45,0,2.9.08,4.35,5.81-.56,11.85,1.25,19.08-1.73C292,38,285.62,40.75,279.73,40.28Z"/><path class="cls-8" d="M1278.16,97.44c11.44,4.76,23.39,1,35,2.14.78-.49,1-1,.77-1.45s-.52-.71-.78-.71Z"/><path class="cls-2" d="M1907.33,44.52a58,58,0,0,0-35.07,0Z"/><path class="cls-8" d="M1548.34,97.57a59,59,0,0,0,34.83-.21Z"/><path class="cls-34" d="M1289.68,44.44l2.22-4.25-18.42.1c0,1.33,0,2.67,0,4Z"/><path class="cls-35" d="M411.44,40.26c-5.08.29-10.48-1.78-16.86,2.17,6.37,3.81,11.74,1.85,16.82,2.09A2.79,2.79,0,0,0,411.44,40.26Z"/><path class="cls-36" d="M411.44,40.26c0,1.42,0,2.84,0,4.26,5.15.32,10.37,1.17,17.86-2C421.81,38.91,416.58,40,411.44,40.26Z"/><path class="cls-37" d="M345.59,44.68l2.43-.32a2.43,2.43,0,0,0,0-3.84c-5.12-.2-10.44-2.3-16.4,1.46C336.52,46.59,341.31,44.28,345.59,44.68Z"/><path class="cls-24" d="M1461.32,97.39a51.33,51.33,0,0,0,32.59,0Z"/><path class="cls-38" d="M1663.1,44.6c5.08-.39,10.5,1.63,17.28-2.51-6.91-3.1-12.2-2-17.35-1.89A3,3,0,0,0,1663.1,44.6Z"/><path class="cls-2" d="M1942.54,44.47a52.76,52.76,0,0,0-32.71,0Z"/><path class="cls-39" d="M458.52,98.82c-6.66-2.54-11.13-1.78-17.4-.69C447.53,103.37,452,102.09,458.52,98.82Z"/><path class="cls-40" d="M1764.1,44.65h16.5c1.43-2.66-1-3.37-2.27-4.65l-14.26,0A3.22,3.22,0,0,0,1764.1,44.65Z"/><path class="cls-41" d="M625.16,40.23H607.44c6.6,7.6,12.94,1.31,17.69,4.26A2.79,2.79,0,0,0,625.16,40.23Z"/><path class="cls-42" d="M1696,40.08c-4.25.45-9-1.8-14.07,2.63,6,3.24,11.31,1.65,16.35,1.82C1699.72,41.88,1697.33,41.25,1696,40.08Z"/><path class="cls-24" d="M1054.89,99.67l4.46-2.17-30.21-.14C1037.37,102.22,1046.36,98.32,1054.89,99.67Z"/><path class="cls-43" d="M625.16,40.23l0,4.26,14,.06c1.28-1.19,3.7-1.78,2.22-4.4Z"/><path class="cls-44" d="M409.18,97.42l-11.75,0c-1.54,1.46-1.55,2.88.08,4.27l16.25,0C414.71,97.43,410.35,99.22,409.18,97.42Z"/><path class="cls-45" d="M256.45,97.43c7.64,4.42,16.09.8,24,2.47.61-.39,1.72-.74,1.74-1.16.15-2.31-1.72-1.92-3-1.9C271.6,97,264,97.22,256.45,97.43Z"/><path class="cls-46" d="M1494.09,44.72c0-1.58-.07-3.16-.11-4.74l-14.08,0a3.15,3.15,0,0,0,0,4.61Z"/><path class="cls-31" d="M1317.92,40.06c0,1.54,0,3.09,0,4.63l13.94-.12c0-1.52,0-3,0-4.55Z"/><path class="cls-7" d="M2071.93,97.56a42.06,42.06,0,0,0,27.88.1Z"/><path class="cls-8" d="M1503.55,97.34a37.63,37.63,0,0,0,27.92,0Z"/><path class="cls-47" d="M357.38,97.3c-4.46-.28-8.94-.7-13.1,1.86,5.28.35,10.26,5.58,15.7.66C359.69,98.37,358.22,98.16,357.38,97.3Z"/><path class="cls-48" d="M585,44.33l-2.19-4.26c-3.69-.19-7.54-1.12-11.85,2.49C576.11,45.8,580.57,45,585,44.33Z"/><path class="cls-19" d="M1778.33,40l2.26,4.65,11.82-.1c0-1.44.09-2.88.14-4.32Z"/><path class="cls-34" d="M676.76,44.72l-.15-4.59c-4.1,0-8.5-1.82-12.88,2.68C668,46.34,672.59,44.45,676.76,44.72Z"/><path class="cls-1" d="M1743.15,40c0,1.52,0,3,0,4.56l11.44-.19c1.49-1.36,1.5-2.71,0-4Z"/><path class="cls-49" d="M1479.92,44.63c0-1.54,0-3.08,0-4.62L1468.27,40l-.06,4.74Z"/><path class="cls-31" d="M542.78,40.18c0,1.44,0,2.87,0,4.31l12-.22c1.5-1,3.46-1.73,2.15-4.21Z"/><path class="cls-50" d="M791.81,44.67,794.12,40l-11.87.17a3.1,3.1,0,0,0,.14,4.49Z"/><path class="cls-33" d="M392.5,41.73c-4.89-2.25-7.72-2.42-11.05.23C384.7,46.05,387.61,44.46,392.5,41.73Z"/><path class="cls-51" d="M1696,40.08l2.28,4.46,9.42.06c0-1.52,0-3,0-4.53Z"/><path class="cls-5" d="M369.08,101.63c3,0,6.16,1.29,9.19-2-3.35-3.82-7.58-2.4-11.49-2.3C365.4,99.94,367.55,100.61,369.08,101.63Z"/><path class="cls-52" d="M415.8,101.58c4.51.43,9.06,1,12.49-3.35-3.34-2-6.78-.58-10.06-.89C417,98.53,415,99.19,415.8,101.58Z"/><path class="cls-53" d="M1437.84,97.42c6.17,3.49,12.34,3.55,18.49,0Z"/><path class="cls-24" d="M850.64,97.51a18.68,18.68,0,0,0,18.57,0Z"/><path class="cls-24" d="M996.26,97.37c6.11,3.59,12.26,3.36,18.43.19Z"/><path class="cls-33" d="M369.24,44.86c2.91-.27,6.11.06,7.76-3.52-3.5-2.49-7-1.08-10.28-1.42-1.54,2.51.63,3.31,2,4.47Z"/><path class="cls-54" d="M1754.57,40.35c0,1.34,0,2.69,0,4l9.49.27,0-4.67Z"/><path class="cls-55" d="M1588.05,44.55c0-1.45,0-2.9,0-4.35l-9.36-.14c0,1.51,0,3,0,4.54Z"/><path class="cls-17" d="M313.91,40c-1.88.23-4.07.4-4.06,2.88,0,1.91,1.95,1.83,3.38,1.84s3.13-.25,3.48-2C317.14,40.6,315.31,40.45,313.91,40Z"/><path class="cls-56" d="M207.14,97.49c5.43,3.13,10.84,3.23,16.23-.08Z"/><path class="cls-47" d="M641.34,40.15l-2.22,4.4c2.81-.07,7.11,1.73,7.85-1.71C647.82,38.83,643.69,40.25,641.34,40.15Z"/><path class="cls-53" d="M601.67,97.39c5.36,3.4,10.76,3.2,16.19.17Z"/><path class="cls-8" d="M951.64,97.37c5.34,3.44,10.72,3.27,16.11.14Z"/><path class="cls-57" d="M369.08,101.63q-1.14-2.16-2.3-4.32h-9.4l2.6,2.52Z"/><path class="cls-58" d="M1233.28,44.44l2.2-4.24-7,0-2.22,4.31Z"/><path class="cls-59" d="M1313.19,97.42c0,.72,0,1.44,0,2.16,4.63-.73,9.73,1.85,13.89-2.08Z"/><path class="cls-60" d="M1090.19,97.33q6.91,5.24,13.85.06Z"/><path class="cls-61" d="M561.76,97.42c4.61,3.35,9.22,3.3,13.85.06Z"/><path class="cls-49" d="M1663.1,44.6c0-1.47,0-2.94-.07-4.4l-6.89-.09c0,1.53,0,3,0,4.57Z"/><path class="cls-62" d="M397.51,101.66l-.09-4.27c-2.29.37-6.27-1.43-5.82,2.85C391.86,102.71,395.32,101.83,397.51,101.66Z"/><path class="cls-63" d="M557,40.06c-.71,1.41-1.43,2.81-2.15,4.22,2.85.51,6.64,1.7,7.21-2.26C562.46,39,558.93,40.22,557,40.06Z"/><path class="cls-64" d="M348,40.52c0,1.28,0,2.56,0,3.84,3.59.56,7,.76,7-4.46Z"/><path class="cls-31" d="M782.39,44.64c0-1.5-.09-3-.14-4.49L777.77,40l-2.17,4.48Z"/><path class="cls-65" d="M368.72,44.39q-1-2.23-2-4.47l-4.27.27C362.16,45.27,365.61,44.57,368.72,44.39Z"/><path class="cls-8" d="M303.59,97.6c3.83,3,7.6,3.12,11.31-.19Z"/><path class="cls-21" d="M1696.16,97.57c3.88,3,7.72,3.07,11.52-.14Z"/><path class="cls-66" d="M415.8,101.58l2.43-4.24-9.05.08,4.58,4.2A5.19,5.19,0,0,0,415.8,101.58Z"/><path class="cls-67" d="M276.43,37.47h-64c21.29,5,42.82,3.17,64.29,3.17C276.64,39.58,276.53,38.53,276.43,37.47Z"/><path class="cls-68" d="M189.62,97.16c1,1,2,3,3,3q32.34.26,64.67,0c1,0,2.05-1.87,3.07-2.87Z"/><path class="cls-16" d="M2096.89,99.12V95c12.11-.34,24.24-1.28,36.24.27,0,1.28,0,2.57,0,3.85Z"/><path class="cls-23" d="M2165,95v4.16c-8.7.11-17.51,1.91-26.13-4.16Z"/><path class="cls-24" d="M2108.73,42c17.93-3.65,35.87-3.35,53.81-.1Z"/><g id="Cuisse_HG"><path class="cls-69" d="M7.73,66C2.16,68.7,1.21,71.23,1.79,78,2.06,81.07.7,84.24.52,87.4a35.4,35.4,0,0,0,.75,6.74,13.26,13.26,0,0,1,.57,2.11C1.45,108.78,9.37,116.17,18,121.74c5.71,3.67,13.14,6.78,20.23,4.36,10.1-3.46,19.91.61,29.84-.11a68.06,68.06,0,0,1,7.4.32c3.09.11,6.08-.27,9,2,1.56,1.21,4.31,1.08,6.5,1,9.46-.41,19,.25,28.18-3.32,7.17-2.8,14.32-5.64,21.55-8.26,3.65-1.33,7.49-2.1,11.18-3.33,9.16-3,18.63-5.4,27.34-9.52s17.38-4.89,26.4-5.48c1.76-.11,3.56.2,5.29-.06a6,6,0,0,1,6.19,2.27c2.33,2.84,5.95,3.69,8.7,2,10.67-6.68,22.43-5.49,34-6.15a19.1,19.1,0,0,0,5.58-1.7c3.29-1.29,6.44-3.08,9.81-4,6.74-1.89,11.41-6.67,15.47-12,1.19-1.58,1.4-5.08.58-7a53.36,53.36,0,0,0-7-11.55c-1.85-2.37-3.16-4.16-2.16-7.48,1.27-4.23-.08-8-3.34-11-4.23-3.85-8.43-7-14.74-6.15-4.57.62-9.35-.82-14-.67-6.64.22-13.27,1-19.91,1.63-.46,0-.9.3-1.36.36-7.34.87-14.67,1.82-22,2.53-2.31.23-4.68-.24-7-.26-4,0-8.1-.68-11.87.23-8.72,2.1-16.88-.31-25-2.6-2.9-.82-5.17-3.84-8-5.24-4.88-2.4-10.06-4.15-15-6.51-2.41-1.16-4.48-3.08-6.71-4.66-1.74-1.24-3.47-2.5-5.23-3.7-1.57-1.08-3.73-1.71-4.66-3.2-2.44-3.9-6.32-5.78-9.6-8.47-3.94-3.24-11.92-3-16.26-.42-1.47.87-4.13.49-5.84-.3-3.34-1.53-5.93-1.12-8.74,1.26a84.43,84.43,0,0,1-10.22,7.35c-1,.61-2.93.31-4.1-.28-4.15-2.12-11.52.13-13.92,4.28a5.47,5.47,0,0,1-3,2.12c-2,.6-4.26.47-6.21,1.22a17.3,17.3,0,0,0-4.84,3.27,35.31,35.31,0,0,0-4,4.29,4.22,4.22,0,0,0-1.2,2.53c.37,3.63-2,4.58-4.49,5.63s-4.68,2.05-6.83,3a6.19,6.19,0,0,0,.1,1.31c.77,1.65,1.55,3.29,2.33,4.94a23.24,23.24,0,0,1,4.23-3c1.09-.47,2.53-.07,3.84-.06-2.09,3-3.8,5.64-5.8,8a4.42,4.42,0,0,1-3.09,1,8.58,8.58,0,0,0-7.92,5.3A15.26,15.26,0,0,1,7.64,66Zm204.8,28.42c-4.79.27-9.39.26-13.92.86a100,100,0,0,0-13.78,2.86c-2.29.63-4.09,1-6.3-.42-1.17-.75-3.14-.48-4.67-.22-2.19.36-4.3,1.22-6.47,1.72-6,1.39-11.95,2.4-17.78,4.57-5.38,2-11.15,2.84-16.86,4.21.18-4.88,1.62-8.75,6.47-10.88a9.23,9.23,0,0,0,4.57-4.82c2.19-6.17,7.25-7.08,12.56-9.08-1.34,2.48-2.43,4.23-3.26,6.11a4.91,4.91,0,0,0,2,6.67c2.62,1.59,4.62.11,5.89-2.2,1-1.89,1.52-4.11,2.37-6.11.55-1.29,1.07-3.1,2.07-3.55,2.62-1.18,3.24-2.84,1.94-5.37,3-.73,5.6-1.41,8.24-2,4.87-1.13,6.21-4.86,3.09-8.95-.86-1.14-2.16-1.9-3.13-3s-1.64-2.18-2.46-3.27l4.1-1.52c-1.64-1.19-3.06-2.7-4.77-3.35-3.4-1.3-7.33-1.47-10.37-3.31-4.67-2.82-8.42-7.46-13.23-9.82-3.86-1.89-4.58-5.21-6.24-8.25-1.2-2.18-.23-4.63,1.56-4.6,1.94,0,10.78,7.29,10.72,9.4-.18,5.84,3.76,7.91,7.73,9.77,3.44,1.62,7,4,11,2.7,3.41-1.08,5.3.4,7,3.17A4.88,4.88,0,0,0,182.88,58c7.72,2,15.45,4.09,23.25,5.76,4.89,1,9.86,1.56,13.39,5.65-1.88,6-5.87,7.11-11.4,6.67-4.49-.36-9.1.82-13.64,1.44-6,.81-11.73,4.35-18,1.41-.93-.43-2.61.15-3.63.8-3,1.93-3.31,7.61-1.1,10.47,1.71,2.21,3.8,2.85,6.29,3.35,5.25,1.08,10.43,2.31,15.72.22a12.37,12.37,0,0,1,3.39-.92c5.51-.46,11-.81,16.59-1.2ZM4.15,85.87c4.8-1.3,8.72-4,9-7.18s2.21-3.8,4.88-5.42c-.91,2.47-1.85,4.1-2,5.82s-.24,4.13.66,5.46c1.65,2.45,3.22,4.36-.78,7,4.78,2.62,8,6.85,13.62,5.91a22,22,0,0,1,4.58.06c6,.27,12,.64,17.94.8A6.49,6.49,0,0,0,56,97.16c2.88-2.31,5.73-2.16,9-1.07a23.85,23.85,0,0,0,6.81,1.17c3.27.11,6.56-.15,9.84-.32a68.51,68.51,0,0,1,7-.45c1.85.09,4.24.23,5.34,1.43.82.88,0,3.48-.18,5.31a4.31,4.31,0,0,1-.65,2.45c-1.42,1.38-3.23,3.72-4.61,3.53-4.9-.7-7.72,2.44-10.7,5.3-3.71,3.55-3,6.26,2.52,7.9-3.34,0-5.91-.11-8.48,0-2.38,0-2.92-1.14-2.2-3.28s1.44-4,2.18-6.06l-13.43-2.18,2.17-5.54-.4-.2-2.48,3.56c-3-.84-5.47-1.67-8-2.28-4-.94-8-1.78-11.94-2.56-2.48-.48-4.23.56-4.58,3.29A50.27,50.27,0,0,0,33,113a21.8,21.8,0,0,0-3.54-1.28c-2.58-.46-5.24-1.18-7.8-.94-3.16.29-3.93,2.94-1.94,5.58a15.91,15.91,0,0,0,2.33,2.08C12.34,116,1.42,95.88,4.15,85.87ZM55.57,75.44c2.5-1.72,7-1,5-6.1-.12-.28.88-1.48,1.46-1.57,3.75-.57,5.88-2.31,5.71-6.12-.14-3.3,1.35-5.37,3.22-7.4,2.77-3,4.55-6.24,3.17-10.71.54.29.76.7,1.1.92,3.74,2.42,7.66,4.6,8.45,9.88.08.57,1.45,1.14,2.3,1.32,5.52,1.2,11.07,2.23,16.58,3.45a24.8,24.8,0,0,1,3.84,1.67c1.21.49,2.46.91,3.69,1.35l3.14,1.09c-.44,1.07-.65,2.37-1.37,3.17-3.18,3.53-6.52,6.91-9.93,10.49C97.73,72.74,92.11,71,86.26,70c-2.71-.46-4.87.28-5.61,3.58-.21.93-1.06,2.29-1.77,2.4a83.73,83.73,0,0,1-13.61,1.57C62.17,77.59,59.08,76.27,55.57,75.44Zm69.07-31.69,1.24.51c-1.23,2.42-2.16,5.1-3.79,7.16-1.11,1.41-3.26,2.81-4.84,2.69a27.5,27.5,0,0,1-9.13-2.44A82.21,82.21,0,0,1,95,44.6a52,52,0,0,1-9.6-9c-1.46-1.71-1.77-4.94.94-5.9,2.16-.75,4.86-.24,7.23.24a34.93,34.93,0,0,1,7.35,2.53c2.52,1.13,5.19,2.22,7.24,4s3.62,2.82,6.23,2.44c3.16-.47,6.12-.21,7.71,3.54C122.38,43.16,123.76,43.34,124.64,43.75ZM242.48,67c1.07-1.94,3.74-2.57,7.05-2.17,2.91.35,4.67-1.58,5.87-4.35a26.22,26.22,0,0,1,3-4.43,49.09,49.09,0,0,1,4.58,4,12.14,12.14,0,0,1,2.4,4c.88,2.48-.43,4.84-2.54,5.08-3.18.36-4.83,2.91-3.51,5.84.89,2,1.69,3.75-.24,5.27s-4.16,1.35-6.08-.5a25.54,25.54,0,0,0-2.47-2.07c-1.55-1.18-2.85-2.28-1.12-4.48.28-.36-.48-2.38-1-2.47a20.4,20.4,0,0,0-4.62,0c-1.45,0-3.64.76-4.19,0-1.65-2.1-3.24-1.23-5.06-.89-2.94.55-5.54.06-6.94-2.42,2.47,0,4.78.11,7.09,0S239.23,67.27,242.48,67ZM102.25,116c.81-4.55,1.69-9.52,2.58-14.49l-1-.52c-1.36,9.84-8.31,13.94-15.54,18.54,4.45-8.44,8.47-16.27,12.79-23.9.42-.74,3-.84,4.11-.28a53.57,53.57,0,0,1,6.7,4.58l-2.23,4.54c4.11,2.11,4.82,4.18,1.94,6.41s-2.87,3.9-.06,5.92c-1.6,2.67-3.22,3-5.4,1.24A23.82,23.82,0,0,0,102.25,116Zm34.93-52.25.23-1.72a46.57,46.57,0,0,1,4.73.07c1.74.2,3.48,1.06,5.17.92,4.85-.39,9.27,0,12.06,4.92.55,1,1.54,2.37,1.24,3-.46,1-2,2.16-2.84,2-4.6-.8-9.13-2-13.68-3-.92-.21-1.8-.58-2.7-.88l1.2-1.52,2.92-1.18Zm76.28,22.62-1.16-.47a30.66,30.66,0,0,1,3.78-4.08,3.19,3.19,0,0,1,2.87.23,47.55,47.55,0,0,1,4.93,3.8c-.42.62-1,2.4-1.92,2.6a13,13,0,0,1-5.41-.37A12.79,12.79,0,0,1,213.46,86.39Zm31.37-37.61c2.83-2.45,10.26-.49,11.32,2.68a2.33,2.33,0,0,1-.25,2,2.51,2.51,0,0,1-2.2.4C250.73,52.28,247.85,50.53,244.83,48.78ZM124.07,112.13c.18-2.48-5.25-3.71-.68-6.26,2-1.12,4.6-1.69,5.46.79C130.31,110.91,126,110.19,124.07,112.13Zm13-53.34c-4.06,1.28-7.33.07-8.43-3.13C133.79,54.86,136.31,55.8,137,58.79Zm-23.87,55.78,6.4-.85a14.9,14.9,0,0,1,0,1.87c-1.88.25-3.78.38-5.68.51A14.5,14.5,0,0,1,113.17,114.57ZM212.09,62A28.32,28.32,0,0,1,210,58.4c-.06-.16,1.31-1.36,1.55-1.22a18.33,18.33,0,0,1,2.7,2.32C213.66,60.13,213.12,60.76,212.09,62Z"/><path class="cls-69" d="M7.93,64.76l9.51-13.57c2-2.88,3.8-5.83,3.1-10.84-1.26,1.88-2.05,3-2.78,4.18-2.36,3.77-4.65,7.59-7,11.34-1.2,1.88-2.8,3.52-3.75,5.52-.35.72.68,2.16,1.06,3.28Z"/><path class="cls-69" d="M153.07,90.11c-.3-.23-1-1.24-1.66-1.23-1.88,0-4.64,4.66-4.07,7a4,4,0,0,0,2.35,2.56C151.53,98.85,153.39,94.52,153.07,90.11Z"/><path class="cls-70" d="M271.58,53.28l2.63,3.83a7.85,7.85,0,0,0-2.42-5.06c-4.2-4.2-11.53-4.09-16.14.19-2.65,2.46-4.15,5-6.25,10.27,1-5.3,3.25-10,8.62-12.72,5.11-2.62,9.39-2.1,14.34,1.35-1.81-3.12-5.84-4.27-13.05-3.78a17.44,17.44,0,0,1,10.41.37c-5.23-3-10.62-2.17-16-.48,7.08-2.89,13.84-3.11,20.14,2.11-1.56-2.82-5.69-4.87-10-5.31-7.37-.76-13.3,2.24-18.6,6.43a32.75,32.75,0,0,0-12.63,22.78c-.14,1.21-.28,2.41-.53,3.6a29.61,29.61,0,0,1,3.72-16.19c4.55-8,11.23-14,20.79-16.58,6.82-1.81,13.27-.91,18.23,4.38.1.11.28.14.5.25-2.82-6.41-11.88-8-25.41-4.9A65.23,65.23,0,0,1,256.83,42c6.53-1,12.64-.43,17.55,4.28,4.11,4,5.34,8.51,3.63,13.78-.4,1.22-1,2.39-1.43,3.52,2.93-2.82,3.71-9.16,1.51-13.55-3-6-8.55-8.86-15.47-9.53-8.8-.86-16.67,1.82-24.11,5.94-1.25.7-2.47,1.43-3.71,2.13,0,0-.12,0-.19,0s-.07-.24,0-.27c6.57-4.36,13.71-7.49,21.81-8.25s15.34.7,20.73,6.84c-2.54-4.25-6.6-6.59-11.59-7.61a37.58,37.58,0,0,0-19.91,1.38c-8.75,3-16.08,7.91-22.8,13.81A105.88,105.88,0,0,0,200,82.76a3.84,3.84,0,0,1-1.1,1.31,4.15,4.15,0,0,1,.24-.78c6.68-12.34,15.2-23.4,26.62-32.46,7.69-6.09,16.18-10.78,26.16-12.62,7.1-1.31,14.14-1.07,20.54,2.48,7,3.9,10.26,11.11,8.42,18.52a1.07,1.07,0,0,0,.17,1.12,30.67,30.67,0,0,0,.9-3.85c.82-7.4-4.18-15.22-11.6-18.1-8.38-3.26-16.89-2.83-25.38-.19-2.68.84-5.2,2.11-7.79,3.18a10.82,10.82,0,0,1-1.56.58c8.14-5.32,26.31-10.43,40-2.41a54.71,54.71,0,0,0-5.23-3.17c-5.38-2.54-11.2-2.64-17-1.92a55.77,55.77,0,0,0-24.16,9.36c-6.86,4.6-13.28,9.76-19.94,14.63-8.66,6.34-18,11.7-28.76,14.18-13.58,3.13-26.68,1.58-38-6-8.63-5.8-12.9-14.09-10.78-24.42a2.37,2.37,0,0,0,.15-1.32c.13,3.42-.3,7,.5,10.23,2.1,8.6,7.82,14.76,16.55,18.3,13.25,5.36,26.55,5.19,40-.2,8.73-3.5,16.09-8.75,23.28-14.29,3.45-2.66,6.81-5.42,10.13-8.24-9.77,6-18.29,13.87-29.72,17.42a27.29,27.29,0,0,0,3.95-1.69c6.16-3.82,12.44-7.5,18.31-11.66,7.84-5.54,15.87-10.65,25-14.26A48.46,48.46,0,0,1,268,33.56c-1.44-.39-2.85-.88-4.31-1.16-9.29-1.79-18,.27-26.34,4-3.46,1.53-6.79,3.31-10.18,5-3.48,2.23-6.9,4.56-10.46,6.67-6,3.53-11.92,7.1-18.09,10.3-3.29,1.7-7,2.66-10.56,3.95l-.18-.45c2.75-1,5.54-1.87,8.26-2.92,7.09-2.72,13.17-7,19.57-10.85,3.78-2.25,7.5-4.59,11.25-6.89,10.13-6,20.74-10.79,33.17-10.08,15.29.86,26.7,14,24,27.47-.34,1.71-1.08,3.35-1.47,5.13a20.08,20.08,0,0,0,1.18-2.05,18.77,18.77,0,0,0,.4-14.14C280.62,37.34,271.37,30.81,259.7,30a47.92,47.92,0,0,0-20.9,3.32c-5.75,2.2-11.52,4.38-17.26,6.62a58.92,58.92,0,0,1-24.18,4.19c10.6.25,20.18-3.15,29.74-6.94,6.91-2.75,13.74-5.83,21.23-7.15a39.18,39.18,0,0,1,21.2,1.64c.36.14.74.24,1.11.36.05,0,.12,0,.18,0-2.17-1.75-6.74-3-11.67-3.43-6.79-.6-13.28.68-19.71,2.57-7.69,2.27-15.26,5.11-23.11,6.64a74.23,74.23,0,0,1-34.27-1.08l.06,0c-7.28-1.33-13.73-4-18.41-9.91.83,2.52,1.15,2.87,6.78,7.68a17.26,17.26,0,0,1-8.66-8.32c2.88,8.18,10.14,11.57,18.24,14.07-7.11-1.51-13.28-4.4-17.66-10l-.41.27a19.29,19.29,0,0,0,2.09,3.07,28.29,28.29,0,0,0,12.28,7c.68.2,1.35.42,2,.63l-.22.53-9.49-3.5a20.35,20.35,0,0,0,9,4c3.14.45,6.37.38,9.58.61a27.75,27.75,0,0,0-11.59,4.32,16.34,16.34,0,0,0,23.43,3.69c2.64-2,5.21-4,8.69-4.61.39-.07.77-.16,1.17-.21a1.06,1.06,0,0,1,.65.2c-4.6.85-7.55,4-11.09,6.39A20.23,20.23,0,0,1,191,55.5c-9.28,1.65-17.27-.51-23.41-7.4,1.17,2.62,3.36,4.36,5.84,5.82,1.19.71,2.46,1.3,3.7,1.94l9.28,1.38c-3.17,0-6.34,0-9.25-1.41-4.15-.73-7.19-3.07-9.91-5.86l-.39.28,3.47,4.26-.15.17L166,50.93c2.17,5.64,7.09,6.74,12.33,7.62-3.94,1-10-1.23-12.5-4.32a43.87,43.87,0,0,0-4.1-3.95l-.72.5c.53.88,1,1.8,1.61,2.63S164,55,164.5,55.84a11.07,11.07,0,0,1-5.21-7.32c-.62,2.9-.06,3.89,5.2,9.89-4.24-2.69-6.83-6.25-6.8-11.17-.88,6.3,2.92,10.17,8.14,13.33-5.5-1.93-8.31-5.84-9.54-11-.47,4.76,2.46,8,5.85,11-3-.68-6-4.73-7.4-9.57.27,5.4,3,9,7.38,11.56a13,13,0,0,1-7-5.72c.15,4.82,5.87,7.44,17.35,8.09l0,.53c-2,.08-4,.22-6,.24-6.3.07-12.55-.08-18.37-2.75-7.44-3.41-11.76-8.9-13.19-16.42-.06-.28-.13-.56-.19-.84l-.67.17a52.59,52.59,0,0,0,2.19,7.24c3.74,8.08,11,12,20,13.34,4.31.63,8.77.51,12.48.69-9.34,1.26-18.78.2-26.92-5.84A21,21,0,0,1,134,48.68c-1-4.62.36-8.74,3.41-12.38,1.06-1.27,2.74-2.1,4.14-3.13l.49.48c-.25.36-.51.71-.76,1.08a4.48,4.48,0,0,0,.31,5.94,5.77,5.77,0,0,0,6.14,1.92c4.73-1.23,6.75-6.25,4-10-3.91-5.29-13.09-5.95-18.61-1.28-4.78,4-6.51,9.25-6.81,15-.62,12.31,8.24,28.81,26.75,33.31a8.84,8.84,0,0,0,2.29,0,28.39,28.39,0,0,1,5.9.16c-1.66.3-3.32.57-5,.9a2.32,2.32,0,0,0-1.35.83l3.23.22,0,.45H152l0,.68c1.82.09,3.65.29,5.47.24s3.78-.34,6-.55c-4.67,1.74-9.22,1.33-13.78.82l0,.65,6,.72V85l-8-.14c5.92,1.66,11.53,0,17.18-1.3C159,86,152.89,87.17,146.46,86l0,.52c1.24.19,2.48.44,3.73.56a41.46,41.46,0,0,1,4.13.39l-6.81.29c6.05,1.07,11.75-.21,17.79-2.69-2.65,2-6.59,3.11-14.5,4.45,4.85.55,9.26-1.11,13.69-2.73l.18.51-9.18,3.36a55.17,55.17,0,0,0,14.64-4.36c-2.45,1.78-5.26,3.18-6.69,6.23L171.27,87l.26.26-7.82,6.32.32.36,6.17-4.53.26.3-5,4.15.28.37,5-3,.23.31-4.12,3,.22.31,6.9-4.39.29.38-8.34,5.7.09.24a30.4,30.4,0,0,0,4.58-2.24,58.74,58.74,0,0,0,7.76-6.27c2.64-2.68,5.51-4.54,9.46-4.86,1.1-.09,2.18-.37,3.35-.44-3.62,1.9-8.47,1.71-10.88,5.45l7.83-3.53.28.46c-3.7,1.64-7.48,3.17-9.81,6.52l5.11-3.47.18.24-6.54,5.79.41.39,2.89-2.62.4.31-3.23,3.72.27.23L184.13,91l.29.28L180.68,95l.21.22L183,93.74l.14.1-2,1.43.43.49,1.9-.27a10.13,10.13,0,0,0-6.28,6.57L182.79,98c-1.92,2.48-4.65,4.26-6.41,6.8l.4.35,5-4.17.39.33-6.34,5.82.53.53,4.73-3.57.25.24-6.26,5.46c4.11-1.72,7-4.68,10-7.54A38,38,0,0,1,174.66,112c5.17-2,9.07-5.58,12.93-9.21a41.66,41.66,0,0,1-10.76,9.7c5.51-1.69,9.39-5.23,12.57-9.57l.41.28c-1.31,1.58-2.5,3.26-4,4.72s-3.2,2.72-4.68,4.17c5.87-2.21,9.12-6.72,11.87-11.71a25.38,25.38,0,0,1-5.88,9.29c3.62-1.62,5.51-4.55,7.2-7.71l-1.51,4.36.49.17,2.43-4.65.4.17-3.33,6.89.32.2,3.78-5.11.41.22-4.33,6.5c2.71-.76,8.26-9.36,8.31-13.17l-.88,1c-.08,0-.17-.07-.16-.08.18-.88.38-1.76.67-3.11l-1.24,1.8c.7-2.91,1.27-6,2.19-8.9s2.69-4.18,5.77-4.3c-1.37.79-2.7,1.12-2.89,2.8-.13,1.17-1.33,2.25-1.71,3.56l3.73-4.75.11.1c-1.38,2.53-2.76,5.06-4.12,7.6-.06.13.07.34.14.63l2.56-3.53.28.13L204,94l.36.22,2.55-3.18.32.14-2.49,4.33c2.72-2,3.62-4.52,4.8-6.86l.46.18L206.63,96c2.89-2.76,3.67-6,4.75-9l.51.15c-.79,2.47-1.59,5-2.39,7.42l.24.11,2.81-5.88L212.38,91l1.16-1.28c-.77,2.89-1.44,5.36-2.11,7.84,2.31-3.2,2.73-6.83,3.33-10.43A22.35,22.35,0,0,1,213,97.65a3.2,3.2,0,0,0-.05,2.1c2.12-5,3.57-10.14,3.22-15.55,1.17,5.56-.73,10.84-1.61,16.29.52-1.24,1.12-2.46,1.55-3.72a38.08,38.08,0,0,0,1-3.91c.3-1.35.51-2.72.76-4.07l.59.09c-.59,3.14-1.17,6.28-1.74,9.33,2.28-1.52,3.14-6.08,2.73-14.41,1.07,3.77.73,7.59.14,11.74a6.06,6.06,0,0,0,1.69-5.2c-.24-3-.83-6-1.25-9a10.75,10.75,0,0,1-.11-3l2.36,11,.54-.09c-.45-2.19-.94-4.38-1.37-6.58a66,66,0,0,1-1-6.56L222.21,83l.22,0c-.25-2.46-.84-4.94-.66-7.37a23.52,23.52,0,0,1,1.82-7.63,25.35,25.35,0,0,1,4.61-6.33c-3,4-5.35,8.21-5.26,13.23,1-3.83,2.32-7.57,5.15-10.72C224.9,70,222.5,76,224.52,82.61c-.37-5,.12-10,3-14.47-2.1,5.35-3,10.73-1,16.23a20.08,20.08,0,0,1,1.11-11.67c-1.18,5.37-1.29,10.6,1.61,15.53l-1-9.59.68-.08c.33,4.52.69,9,4,12.68l-2.16-6.81.3-.07L234,90.78l.48-.18-1.59-5.3c1.35,2.72,2.45,5.5,5.1,7.46-2.89-4.5-4.76-9.24-4.15-14.61.47,5.42,1.95,10.46,6.17,14.5-2.62-4.2-4.4-8.62-4.13-13.6.75,3.89,1.46,7.8,4.4,11-1.77-4.88-3.68-9.72-3.07-14.63.83,3.4,1.75,7.14,2.67,10.88l1-.16a18,18,0,0,0-.35-2.75,56.15,56.15,0,0,1-1.72-7l2.37,6.45.83-.18a7.86,7.86,0,0,0-.4-2.24c-1.88-3.81-3-7.74-2.69-11.65,1,3.45,2.06,7.21,3.13,11l.87-.16a6,6,0,0,0-.25-1.49,25.62,25.62,0,0,1-2.3-11.21,10,10,0,0,1,4.31-8.06c-2.46,3.23-3.23,6.6-1.29,10.66a34.86,34.86,0,0,1,.1-4.9,15.64,15.64,0,0,1,1.6-4.48c-1.07,4-1.61,8,.66,11.8l-.83-7.15.25,0,1.94,8,.5-.11-.9-4,.16,0,2.79,5.83.46-.17-1.47-4.72.28-.09L252,75l.49-.19c-1.28-2.5-2.51-5-1.7-7.86.34,1.54.68,3.07,1,4.61l.57-.07-.15-3.83.47,0,.34,2h.44l.54-8.77.54,0q-.12,2.94-.22,5.88l.75.07c.3-1.69.67-3.37.89-5.07.35-2.76.7-5.54,3.09-7.54,4.46-3.73,10.68-2.61,13.91,2.27-.47-1.06-.94-2.13-1.42-3.19-1.82-.88-3.54-2.14-5.47-2.54s-4.14.08-6.45.17c1-.29,1.77-.57,2.58-.76C265.2,49.46,270.69,50.79,271.58,53.28Zm-123.13-22a5.54,5.54,0,0,1,1.26,8.82c-1.82,1.69-5.27,1.88-7.06.4s-2-3.6-.16-5.55a13.22,13.22,0,0,0-.67,2.18A3.7,3.7,0,0,0,145.25,41a4.79,4.79,0,0,0,5.28-3.27c.69-2.52-.35-4.5-2.24-6.21-4.69-2.53-9.27-2.12-13.77.57a20.13,20.13,0,0,0-6.79,15.62c.06,4.44.79,8.75,3.41,12.61a12.17,12.17,0,0,0-.5-1.72,24.53,24.53,0,0,1-2.3-11.88,67,67,0,0,1,1.41-7.35l.72.1A19.14,19.14,0,0,0,129,51.06c.83,3.8,2.28,7.47,3.32,10.77l-1.28-1.6a28.83,28.83,0,0,0,7,9.73c1.65,1.63,3.13,3.41,4.69,5.11l.62-.61a1,1,0,0,1-.36-.07c-10.65-5.84-17.72-19.79-15.62-31.15a16.35,16.35,0,0,1,7-11.24C137.68,28.75,144.67,28.41,148.45,31.31ZM136.23,36a3.92,3.92,0,0,1,4.24-3.3L136.21,36c-.35.65-.66,1.32-1,1.95A15.44,15.44,0,0,0,133.39,50c2,8.31,7.64,13.81,15.77,17.28a40,40,0,0,0,7.69,2.26c2.61.54,5.32.7,8,1-9.49.43-18-2-24.76-8.11-5.59-5-8.54-11.35-7.5-18.79C133,40.82,133.74,38,136.23,36Zm0-3.88A18.66,18.66,0,0,1,138.63,31c4-1.38,8.18-.32,10.24,2.53,1.58,2.18,1.19,5.13-1.1,6a6.43,6.43,0,0,1-4-.2c-.66-.23-.88-1.53-1.29-2.34l.46-.21c.49,2.11,2,3.16,3.79,2.68A3.3,3.3,0,0,0,149,35.05a6.33,6.33,0,0,0-5.9-4.1A51.65,51.65,0,0,0,136.24,32.09Zm16.44,35.66c3.45.36,7.14.94,10.85,1s7.49-.26,11.23-.42C166.18,69.87,156.36,69.45,152.68,67.75Zm60.76,8.54c.43-3.27,3.67-10.34,5.42-12C217.1,68.2,215.24,72.33,213.44,76.29Zm-67.28-37c.79-1.35,1.76-2.29,1.73-3.18,0-1-.95-2.05-1.44-3,1.7.93,2.59,2.25,2,3.72C148.08,37.69,147.08,38.32,146.16,39.27Zm32.4,8.4,0-.57,8.48.5v.17Zm14.52,3,.06.24-7.86,1.62-.13-.57Zm-13.85-1.57,0-.59,7,.54,0,.34Z"/></g><g id="Cuisse_HG-2" data-name="Cuisse_HG"><path class="cls-69" d="M2355.59,62.93c5.58,2.74,6.52,5.27,5.94,12.05-.26,3.06,1.09,6.24,1.28,9.39a34.63,34.63,0,0,1-.76,6.74c-.1.72-.58,1.41-.56,2.11.38,12.53-7.53,19.92-16.2,25.49-5.7,3.67-13.13,6.78-20.22,4.36-10.1-3.45-19.92.61-29.85-.11a68.06,68.06,0,0,0-7.4.32c-3.09.11-6.08-.26-9,2-1.57,1.21-4.31,1.08-6.5,1-9.46-.41-19,.26-28.19-3.32-7.16-2.8-14.32-5.64-21.54-8.26-3.66-1.33-7.49-2.1-11.18-3.32-9.17-3-18.64-5.4-27.34-9.53s-17.38-4.89-26.41-5.48c-1.76-.11-3.56.2-5.29-.06a6,6,0,0,0-6.18,2.27c-2.33,2.84-6,3.69-8.71,2-10.66-6.69-22.42-5.5-34-6.16a19.19,19.19,0,0,1-5.58-1.7c-3.29-1.29-6.43-3.08-9.8-4-6.74-1.89-11.41-6.67-15.47-12-1.19-1.58-1.41-5.08-.58-7a53.2,53.2,0,0,1,7-11.55c1.85-2.37,3.15-4.15,2.16-7.47-1.28-4.24.07-8,3.33-11,4.24-3.85,8.43-7,14.74-6.15,4.57.62,9.36-.82,14-.67,6.65.22,13.28,1,19.92,1.63.46,0,.9.31,1.36.36,7.33.87,14.66,1.82,22,2.53,2.32.23,4.69-.24,7-.26,4,0,8.1-.68,11.88.23,8.72,2.11,16.88-.31,25-2.6,2.91-.81,5.18-3.84,8-5.24,4.89-2.4,10.07-4.15,15-6.51,2.4-1.16,4.48-3.08,6.7-4.66,1.75-1.24,3.47-2.5,5.23-3.7,1.58-1.08,3.74-1.71,4.67-3.2,2.44-3.9,6.31-5.78,9.59-8.47,3.94-3.24,11.92-3,16.27-.42,1.46.87,4.13.49,5.84-.29,3.34-1.54,5.93-1.13,8.73,1.25a85.33,85.33,0,0,0,10.23,7.35c1,.61,2.92.31,4.09-.28,4.15-2.11,11.52.14,13.93,4.28a5.44,5.44,0,0,0,3,2.12c2,.6,4.26.47,6.21,1.22a17.46,17.46,0,0,1,4.83,3.27,35.31,35.31,0,0,1,4,4.29,4.24,4.24,0,0,1,1.21,2.53c-.37,3.63,2.05,4.58,4.49,5.63s4.67,2,6.83,3a5.84,5.84,0,0,1-.11,1.31c-.76,1.66-1.55,3.29-2.32,4.94a23.45,23.45,0,0,0-4.24-3c-1.09-.47-2.53-.07-3.84-.06,2.09,3,3.8,5.64,5.81,8a4.34,4.34,0,0,0,3.09,1,8.6,8.6,0,0,1,7.92,5.3,15.25,15.25,0,0,0,9.95,8.63ZM2150.8,91.35c4.78.27,9.39.26,13.92.86a100,100,0,0,1,13.78,2.86c2.28.63,4.09,1,6.3-.41,1.17-.76,3.13-.49,4.67-.23,2.19.36,4.29,1.22,6.47,1.73,5.95,1.38,11.95,2.39,17.78,4.56,5.38,2,11.15,2.84,16.85,4.21-.18-4.88-1.61-8.75-6.47-10.88a9.27,9.27,0,0,1-4.57-4.82c-2.18-6.16-7.24-7.08-12.55-9.08,1.33,2.48,2.43,4.23,3.25,6.11a4.9,4.9,0,0,1-2,6.67c-2.61,1.59-4.61.11-5.89-2.2-1-1.89-1.51-4.11-2.37-6.11-.54-1.29-1.07-3.1-2.06-3.55-2.63-1.18-3.24-2.84-1.94-5.37-3-.73-5.61-1.41-8.24-2-4.87-1.13-6.21-4.85-3.1-9,.87-1.13,2.17-1.89,3.14-3s1.64-2.17,2.45-3.27L2186.09,57c1.63-1.18,3-2.7,4.77-3.35,3.39-1.3,7.32-1.47,10.37-3.31,4.66-2.82,8.42-7.46,13.23-9.82,3.86-1.89,4.58-5.21,6.24-8.24,1.19-2.19.23-4.64-1.57-4.61s-10.78,7.29-10.71,9.4c.17,5.84-3.77,7.91-7.74,9.78-3.44,1.61-6.95,4-10.95,2.69-3.41-1.08-5.3.4-7,3.17a4.9,4.9,0,0,1-2.33,2.25C2172.72,57,2165,59,2157.2,60.7c-4.89,1-9.87,1.56-13.39,5.65,1.87,6,5.87,7.11,11.39,6.67,4.49-.36,9.1.82,13.65,1.44,6,.81,11.72,4.36,18.05,1.41.93-.43,2.61.15,3.63.81,3,1.92,3.31,7.6,1.1,10.46-1.71,2.21-3.8,2.85-6.29,3.36-5.26,1.07-10.44,2.3-15.72.21a12.37,12.37,0,0,0-3.39-.92c-5.51-.46-11-.81-16.59-1.2Zm208.38-8.51c-4.81-1.29-8.72-4-9-7.18s-2.22-3.8-4.88-5.42c.9,2.47,1.85,4.1,2,5.82s.25,4.13-.66,5.47c-1.65,2.44-3.21,4.35.78,6.94-4.78,2.62-8,6.86-13.62,5.91a21.86,21.86,0,0,0-4.57.06c-6,.27-12,.64-17.94.8a6.42,6.42,0,0,1-3.94-1.11c-2.88-2.31-5.74-2.16-9-1.06a23.83,23.83,0,0,1-6.8,1.16c-3.28.11-6.56-.15-9.84-.32-2.33-.12-4.67-.56-7-.45-1.86.09-4.24.24-5.34,1.43-.82.88,0,3.49.18,5.31a4.39,4.39,0,0,0,.64,2.45c1.43,1.38,3.24,3.72,4.62,3.53,4.89-.7,7.71,2.44,10.7,5.3,3.71,3.55,3,6.26-2.53,7.91,3.35,0,5.92-.12,8.48,0,2.39,0,2.93-1.14,2.2-3.28s-1.43-4-2.17-6.06l13.42-2.18-2.16-5.54.4-.19,2.48,3.55c3-.84,5.46-1.67,8-2.28q6-1.39,12-2.55c2.47-.49,4.23.56,4.57,3.28a52.43,52.43,0,0,1,.09,5.84,21.69,21.69,0,0,1,3.53-1.28c2.59-.46,5.25-1.18,7.81-.94,3.16.29,3.93,2.94,1.93,5.59a16.49,16.49,0,0,1-2.33,2.07C2351,113,2361.9,92.85,2359.18,82.84Zm-51.43-10.43c-2.5-1.72-7-1-5-6.1.11-.28-.89-1.48-1.46-1.57-3.76-.57-5.88-2.31-5.72-6.12.15-3.3-1.34-5.37-3.21-7.39-2.78-3-4.55-6.25-3.18-10.72-.54.29-.76.71-1.1.92-3.74,2.42-7.65,4.6-8.44,9.88-.09.57-1.46,1.14-2.31,1.33-5.51,1.19-11.07,2.22-16.58,3.44a25.23,25.23,0,0,0-3.84,1.67c-1.21.5-2.45.91-3.68,1.35-1.05.38-2.1.73-3.15,1.09.45,1.07.65,2.37,1.37,3.17,3.19,3.53,6.52,6.91,9.94,10.49,4.18-4.14,9.79-5.84,15.65-6.84,2.71-.46,4.86.29,5.61,3.59.21.92,1.06,2.28,1.77,2.39a83.73,83.73,0,0,0,13.61,1.57C2301.15,74.56,2304.24,73.24,2307.75,72.41Zm-69.06-31.69-1.24.51c1.22,2.42,2.15,5.1,3.78,7.16,1.11,1.41,3.26,2.81,4.85,2.69a27.38,27.38,0,0,0,9.12-2.44,81.36,81.36,0,0,0,13.13-7.07,52,52,0,0,0,9.61-9c1.46-1.71,1.76-4.94-.94-5.89-2.16-.76-4.87-.25-7.24.23a35.13,35.13,0,0,0-7.35,2.53c-2.51,1.13-5.19,2.22-7.23,4s-3.63,2.82-6.24,2.43c-3.15-.47-6.11-.2-7.71,3.54C2240.94,40.13,2239.56,40.31,2238.69,40.72ZM2120.84,64c-1.07-1.94-3.73-2.57-7-2.17-2.92.35-4.68-1.57-5.87-4.35a27.46,27.46,0,0,0-3-4.43,52.1,52.1,0,0,0-4.59,4,12.31,12.31,0,0,0-2.4,4c-.87,2.48.43,4.84,2.54,5.08,3.19.36,4.84,2.91,3.51,5.84-.88,1.95-1.68,3.76.24,5.27s4.16,1.36,6.08-.5a25.66,25.66,0,0,1,2.48-2.07c1.55-1.18,2.84-2.28,1.12-4.48-.28-.36.47-2.38,1-2.47a19.85,19.85,0,0,1,4.62,0c1.44,0,3.64.75,4.19,0,1.64-2.11,3.23-1.24,5-.9,2.94.55,5.55.06,7-2.42-2.47,0-4.79.11-7.1,0S2124.1,64.24,2120.84,64Zm140.23,49c-.81-4.55-1.69-9.52-2.57-14.49l.94-.52c1.37,9.84,8.31,13.94,15.55,18.54-4.46-8.44-8.47-16.27-12.8-23.9-.41-.74-3-.84-4.1-.28-2.34,1.15-4.38,2.94-6.71,4.58l2.23,4.55c-4.11,2.1-4.82,4.17-1.94,6.41s2.88,3.89.07,5.91c1.6,2.67,3.21,3,5.4,1.25A23,23,0,0,1,2261.07,113Zm-34.93-52.25-.23-1.72a46.42,46.42,0,0,0-4.72.07c-1.74.2-3.49,1.06-5.18.93-4.84-.4-9.27,0-12.05,4.91-.55,1-1.55,2.37-1.25,3,.46,1,2,2.16,2.85,2,4.59-.79,9.13-2,13.68-3,.92-.22,1.8-.59,2.7-.89l-1.2-1.52-2.92-1.18Zm-76.28,22.63,1.16-.48a31.27,31.27,0,0,0-3.77-4.08,3.24,3.24,0,0,0-2.88.23,49,49,0,0,0-4.93,3.8c.42.62,1,2.4,1.92,2.6a13,13,0,0,0,5.41-.37A12.38,12.38,0,0,0,2149.86,83.37ZM2118.5,45.75c-2.84-2.45-10.26-.49-11.33,2.69a2.35,2.35,0,0,0,.26,2,2.51,2.51,0,0,0,2.2.4C2112.6,49.25,2115.47,47.5,2118.5,45.75Zm120.76,63.36c-.18-2.49,5.25-3.72.67-6.27-2-1.12-4.59-1.69-5.45.79C2233,107.88,2237.36,107.16,2239.26,109.11Zm-13-53.35c4.05,1.29,7.33.07,8.42-3.13C2229.54,51.83,2227,52.77,2226.29,55.76Zm23.87,55.78-6.41-.85a14.9,14.9,0,0,0,0,1.87c1.89.25,3.79.38,5.68.51A8.74,8.74,0,0,0,2250.16,111.54Zm-98.92-52.6a28.06,28.06,0,0,0,2.12-3.57c.07-.15-1.3-1.36-1.55-1.21a17.61,17.61,0,0,0-2.69,2.31Z"/><path class="cls-69" d="M2355.4,61.73q-4.76-6.78-9.52-13.57c-2-2.88-3.79-5.83-3.1-10.84,1.26,1.89,2.06,3,2.79,4.18,2.35,3.77,4.65,7.59,7,11.34,1.21,1.88,2.81,3.52,3.76,5.52.34.72-.68,2.16-1.07,3.28Z"/><path class="cls-69" d="M2210.26,87.08c.29-.23,1-1.24,1.65-1.23,1.88,0,4.65,4.66,4.07,7a3.92,3.92,0,0,1-2.35,2.56C2211.8,95.83,2209.93,91.5,2210.26,87.08Z"/><path class="cls-70" d="M2091.75,50.25l-2.64,3.83a7.86,7.86,0,0,1,2.43-5.06c4.19-4.2,11.53-4.09,16.14.19,2.65,2.47,4.15,5,6.24,10.27-1-5.3-3.24-10-8.62-12.72-5.11-2.62-9.38-2.1-14.34,1.35,1.81-3.12,5.85-4.27,13.06-3.78a17.44,17.44,0,0,0-10.41.37c5.22-3,10.61-2.17,16-.48-7.07-2.89-13.84-3.11-20.13,2.11,1.55-2.82,5.68-4.87,10-5.31,7.37-.75,13.31,2.24,18.61,6.43a32.79,32.79,0,0,1,12.63,22.78c.13,1.21.28,2.41.52,3.6a29.53,29.53,0,0,0-3.72-16.19c-4.54-8-11.22-14-20.78-16.58-6.83-1.81-13.28-.91-18.23,4.38a1.72,1.72,0,0,1-.51.25c2.83-6.41,11.88-8,25.41-4.9A67.55,67.55,0,0,0,2106.5,39c-6.54-1-12.65-.43-17.55,4.28-4.11,4-5.35,8.52-3.63,13.78.4,1.22,1,2.39,1.43,3.52-2.93-2.82-3.71-9.16-1.52-13.54,3-6.06,8.55-8.86,15.48-9.54,8.8-.86,16.67,1.82,24.11,6,1.25.69,2.47,1.42,3.71,2.13,0,0,.11,0,.19-.05s.06-.24,0-.27c-6.56-4.36-13.7-7.49-21.8-8.25s-15.35.7-20.74,6.84c2.55-4.25,6.61-6.59,11.6-7.61a37.58,37.58,0,0,1,19.91,1.38c8.75,3,16.07,7.92,22.79,13.82a105.92,105.92,0,0,1,22.85,28.31,3.73,3.73,0,0,0,1.1,1.31,4.17,4.17,0,0,0-.25-.78c-6.67-12.34-15.19-23.4-26.62-32.46-7.68-6.09-16.17-10.78-26.16-12.62-7.09-1.31-14.13-1.07-20.53,2.48-7,3.9-10.27,11.11-8.42,18.52a1.09,1.09,0,0,1-.17,1.12,32.57,32.57,0,0,1-.91-3.85c-.82-7.4,4.19-15.22,11.61-18.1,8.38-3.26,16.89-2.83,25.37-.19,2.68.84,5.2,2.11,7.8,3.18a10.4,10.4,0,0,0,1.56.58c-8.15-5.32-26.32-10.43-40-2.41a53.5,53.5,0,0,1,5.23-3.17c5.38-2.54,11.2-2.64,17-1.92a55.68,55.68,0,0,1,24.15,9.36c6.87,4.6,13.29,9.77,19.94,14.63,8.67,6.34,18,11.7,28.76,14.19,13.58,3.12,26.69,1.57,38-6,8.64-5.8,12.91-14.09,10.78-24.42a2.46,2.46,0,0,1-.14-1.32c-.14,3.42.29,7-.51,10.23-2.1,8.6-7.81,14.76-16.54,18.3-13.26,5.36-26.55,5.19-40-.2-8.72-3.5-16.08-8.75-23.28-14.29-3.45-2.66-6.8-5.42-10.12-8.24,9.77,6,18.28,13.87,29.72,17.42a26.94,26.94,0,0,1-4-1.69c-6.15-3.82-12.43-7.5-18.31-11.66-7.83-5.54-15.86-10.65-25-14.26a48.47,48.47,0,0,0-28.16-2.93c1.43-.39,2.85-.87,4.31-1.16,9.28-1.78,18,.27,26.34,4,3.46,1.53,6.79,3.31,10.18,5,3.48,2.23,6.89,4.56,10.46,6.67,6,3.52,11.91,7.09,18.09,10.29,3.29,1.7,7,2.66,10.56,3.95l.18-.45c-2.76-1-5.54-1.87-8.27-2.92-7.09-2.72-13.16-7-19.56-10.84-3.79-2.26-7.51-4.6-11.26-6.9-10.13-6-20.74-10.79-33.16-10.08-15.3.87-26.7,14-24,27.47.35,1.71,1.08,3.35,1.48,5.13a20.18,20.18,0,0,1-1.19-2,18.77,18.77,0,0,1-.4-14.14c3.58-10.14,12.83-16.67,24.5-17.53a47.87,47.87,0,0,1,20.89,3.32c5.76,2.2,11.52,4.38,17.26,6.62A58.8,58.8,0,0,0,2166,41.05c-10.6.25-20.19-3.15-29.74-6.94-6.92-2.75-13.74-5.83-21.24-7.15a39.14,39.14,0,0,0-21.19,1.64c-.36.14-.74.25-1.11.36-.05,0-.12,0-.18,0,2.17-1.75,6.73-3,11.66-3.43,6.8-.6,13.29.68,19.71,2.57,7.7,2.27,15.26,5.11,23.12,6.65a74.36,74.36,0,0,0,34.27-1.09l-.07.05c7.29-1.34,13.74-4,18.41-9.91-.82,2.51-1.15,2.86-6.77,7.68a17.32,17.32,0,0,0,8.66-8.33c-2.89,8.18-10.14,11.57-18.25,14.07,7.11-1.51,13.29-4.4,17.66-10l.41.26a18.85,18.85,0,0,1-2.09,3.07,28.25,28.25,0,0,1-12.27,7c-.68.2-1.35.42-2,.64l.22.52,9.49-3.5a20.34,20.34,0,0,1-9,4c-3.13.45-6.36.38-9.58.61a27.65,27.65,0,0,1,11.59,4.32,16.33,16.33,0,0,1-23.42,3.69c-2.64-2-5.21-4-8.69-4.61-.39-.07-.78-.16-1.17-.21a1,1,0,0,0-.65.2c4.6.85,7.55,4,11.09,6.4a20.32,20.32,0,0,0,7.6,2.87c9.27,1.65,17.27-.51,23.41-7.4-1.18,2.63-3.36,4.36-5.84,5.83-1.2.7-2.47,1.29-3.7,1.93L2177,54.21c3.17,0,6.34,0,9.25-1.41,4.16-.73,7.2-3.07,9.92-5.86l.39.28-3.47,4.26.15.17,4.15-3.75c-2.17,5.64-7.09,6.74-12.33,7.62,3.94,1,10-1.23,12.49-4.32a42.65,42.65,0,0,1,4.11-3.94l.72.49c-.53.88-1,1.8-1.61,2.63s-1.35,1.57-1.91,2.43a11,11,0,0,0,5.21-7.32c.63,2.9.07,3.89-5.2,9.89,4.24-2.69,6.84-6.25,6.8-11.17.88,6.3-2.91,10.17-8.13,13.33,5.5-1.93,8.3-5.84,9.54-10.95.46,4.76-2.46,8-5.85,11,3-.68,6-4.72,7.4-9.57-.27,5.4-3,9-7.39,11.56a13,13,0,0,0,7-5.72c-.14,4.82-5.86,7.44-17.35,8.09l0,.53c2,.09,4,.22,6,.24,6.3.07,12.55-.07,18.36-2.74,7.44-3.42,11.77-8.91,13.2-16.43.05-.28.12-.56.18-.84l.67.17a50.85,50.85,0,0,1-2.19,7.24c-3.73,8.08-11,12-20,13.34-4.32.63-8.77.51-12.49.7,9.35,1.26,18.79.19,26.92-5.85a20.91,20.91,0,0,0,7.92-12.69c1.05-4.61-.35-8.74-3.4-12.38-1.07-1.26-2.75-2.1-4.15-3.13l-.49.48c.26.36.52.71.76,1.08a4.48,4.48,0,0,1-.31,5.94,5.75,5.75,0,0,1-6.13,1.92c-4.74-1.23-6.75-6.25-4-10,3.9-5.29,13.09-5.94,18.61-1.28,4.77,4,6.51,9.25,6.8,15,.63,12.31-8.23,28.81-26.74,33.31a8.91,8.91,0,0,1-2.3,0,28.43,28.43,0,0,0-5.9.16c1.66.3,3.33.57,5,.9a2.26,2.26,0,0,1,1.34.84l-3.23.21v.45h6.11l0,.68c-1.82.09-3.65.29-5.47.24s-3.79-.34-6-.55c4.67,1.74,9.22,1.33,13.78.82l.05.65-6,.72V82l8-.14c-5.92,1.66-11.52,0-17.17-1.3,5.86,2.47,11.93,3.6,18.37,2.41l0,.52c-1.24.19-2.47.44-3.72.56a41.46,41.46,0,0,0-4.13.39l6.8.29c-6,1.07-11.74-.21-17.78-2.69,2.65,2,6.58,3.11,14.49,4.45-4.85.55-9.26-1.11-13.68-2.73l-.19.51,9.19,3.36a54.7,54.7,0,0,1-14.64-4.36c2.45,1.78,5.26,3.18,6.69,6.24l-7.88-5.55-.25.27,7.82,6.31-.33.36-6.16-4.53-.27.31,5,4.14-.29.37-5-3-.23.31,4.11,3-.22.32-6.9-4.39-.28.37,8.34,5.71-.1.23a29.47,29.47,0,0,1-4.58-2.24,60.07,60.07,0,0,1-7.76-6.27c-2.63-2.68-5.51-4.54-9.45-4.86-1.1-.09-2.18-.37-3.35-.43,3.61,1.89,8.46,1.7,10.87,5.44l-7.83-3.53-.27.46c3.69,1.64,7.48,3.17,9.81,6.52l-5.11-3.47-.18.24,6.54,5.79-.42.39-2.88-2.61-.41.3,3.24,3.73-.28.22-6.07-5.47-.3.28,3.75,3.77-.22.22-2.07-1.49-.14.1,2,1.43-.43.49-1.89-.27a10.09,10.09,0,0,1,6.27,6.57L2180.53,95c1.92,2.48,4.66,4.26,6.42,6.8l-.4.36-5-4.18-.39.34,6.35,5.81-.53.53-4.73-3.57-.26.25,6.26,5.45c-4.1-1.72-7-4.68-10-7.54a37.79,37.79,0,0,0,10.46,9.79c-5.17-2-9.07-5.58-12.92-9.21a41.88,41.88,0,0,0,10.76,9.71c-5.52-1.7-9.4-5.24-12.57-9.58l-.42.28c1.31,1.58,2.51,3.27,4,4.72s3.19,2.72,4.68,4.17c-5.87-2.21-9.12-6.72-11.88-11.7a25.68,25.68,0,0,0,5.88,9.29c-3.61-1.63-5.5-4.56-7.2-7.72.51,1.46,1,2.91,1.52,4.36l-.49.17-2.43-4.64-.41.16,3.33,6.89-.32.21-3.78-5.12-.4.22,4.32,6.5c-2.7-.76-8.26-9.36-8.3-13.17l.88,1c.08,0,.16-.06.16-.08-.19-.88-.38-1.76-.68-3.11l1.24,1.8c-.7-2.91-1.26-6-2.19-8.9s-2.69-4.18-5.77-4.3c1.38.79,2.71,1.13,2.9,2.81.13,1.17,1.33,2.24,1.71,3.55-1.25-1.58-2.49-3.17-3.73-4.75l-.11.1c1.37,2.53,2.75,5.06,4.11,7.6.07.13-.06.34-.13.64l-2.57-3.54-.27.14,1.77,3.54-.35.22L2156.41,88l-.32.14,2.49,4.33c-2.71-2-3.61-4.52-4.8-6.86l-.45.18L2156.7,93c-2.9-2.76-3.67-6-4.76-9l-.51.15c.8,2.47,1.6,5,2.39,7.42l-.24.11-2.8-5.88.17,2.18-1.17-1.28c.78,2.89,1.45,5.37,2.11,7.84-2.3-3.2-2.72-6.83-3.32-10.43a22.09,22.09,0,0,0,1.79,10.55,3.2,3.2,0,0,1,0,2.1c-2.11-5-3.56-10.14-3.21-15.55-1.17,5.56.73,10.84,1.61,16.29-.53-1.24-1.12-2.46-1.55-3.72a35.72,35.72,0,0,1-1-3.91c-.3-1.35-.51-2.71-.76-4.07l-.58.09c.58,3.14,1.17,6.29,1.74,9.33-2.29-1.52-3.15-6.08-2.74-14.41-1.07,3.77-.72,7.6-.14,11.74a6,6,0,0,1-1.68-5.2c.24-3,.82-6,1.25-9a10.75,10.75,0,0,0,.1-3l-2.36,11-.54-.09c.46-2.19.95-4.38,1.37-6.58a63.22,63.22,0,0,0,1-6.56L2141.12,80l-.23,0c.26-2.46.85-4.93.67-7.37a23.84,23.84,0,0,0-1.82-7.63,25.4,25.4,0,0,0-4.62-6.33c3,4,5.35,8.21,5.27,13.23-1-3.83-2.33-7.57-5.15-10.72,3.19,5.87,5.59,11.84,3.56,18.49.37-5-.12-10-3-14.47,2.1,5.35,3,10.73,1,16.23a20,20,0,0,0-1.11-11.67c1.19,5.37,1.29,10.6-1.61,15.53l1-9.59-.69-.08c-.32,4.52-.68,9-4,12.68l2.16-6.81-.3-.07-2.9,6.42-.49-.18,1.6-5.3c-1.35,2.73-2.45,5.5-5.11,7.46,2.9-4.5,4.76-9.24,4.15-14.61-.46,5.42-1.95,10.46-6.17,14.5,2.62-4.2,4.4-8.62,4.14-13.6-.76,3.89-1.47,7.8-4.41,11,1.77-4.88,3.69-9.72,3.08-14.63-.84,3.4-1.75,7.14-2.67,10.88l-1-.16a19.32,19.32,0,0,1,.35-2.75,56.19,56.19,0,0,0,1.73-7l-2.38,6.46-.82-.18a7.86,7.86,0,0,1,.4-2.25c1.88-3.81,3-7.74,2.68-11.65-1,3.46-2,7.21-3.12,11l-.87-.16a5.6,5.6,0,0,1,.25-1.49A25.47,25.47,0,0,0,2123,63.81a10,10,0,0,0-4.3-8.06c2.46,3.23,3.23,6.6,1.28,10.66a35,35,0,0,0-.09-4.9,16.09,16.09,0,0,0-1.61-4.48c1.08,4,1.61,8-.65,11.8l.83-7.15-.25,0-1.94,8-.5-.11.9-4-.17,0-2.79,5.82-.46-.17,1.47-4.72-.27-.09-3.15,5.53-.48-.19c1.27-2.49,2.51-5,1.7-7.86-.34,1.54-.69,3.07-1,4.61l-.58-.07.15-3.83-.46,0-.35,2h-.43l-.54-8.77-.54,0c.07,2,.15,3.92.22,5.88l-.75.08c-.31-1.7-.68-3.38-.9-5.08-.35-2.76-.7-5.54-3.09-7.54-4.46-3.72-10.68-2.61-13.91,2.27.48-1.06,1-2.13,1.42-3.19,1.82-.88,3.54-2.14,5.48-2.53s4.14.07,6.45.17c-1-.3-1.77-.58-2.59-.77C2098.12,46.43,2092.63,47.76,2091.75,50.25Zm123.12-22a5.53,5.53,0,0,0-1.25,8.81c1.81,1.69,5.27,1.89,7.05.4s2-3.59.16-5.55a12.58,12.58,0,0,1,.67,2.18,3.69,3.69,0,0,1-3.42,3.81,4.79,4.79,0,0,1-5.28-3.26c-.7-2.53.34-4.51,2.24-6.22,4.69-2.53,9.27-2.12,13.76.57a20.17,20.17,0,0,1,6.8,15.62c-.06,4.44-.8,8.76-3.41,12.61a13,13,0,0,1,.49-1.72,24.28,24.28,0,0,0,2.3-11.88,67,67,0,0,0-1.41-7.35l-.72.1A19.14,19.14,0,0,1,2234.3,48c-.83,3.8-2.29,7.47-3.33,10.77l1.29-1.6a29,29,0,0,1-7,9.74c-1.65,1.62-3.14,3.4-4.7,5.11l-.62-.62a1.11,1.11,0,0,0,.37-.07c10.65-5.84,17.71-19.79,15.61-31.15a16.38,16.38,0,0,0-7-11.24C2225.64,25.72,2218.66,25.38,2214.87,28.29ZM2227.1,33a3.92,3.92,0,0,0-4.24-3.31l4.26,3.29c.34.65.65,1.32,1,2a15.44,15.44,0,0,1,1.77,12c-1.95,8.31-7.64,13.81-15.77,17.28a40.7,40.7,0,0,1-7.68,2.27c-2.62.53-5.33.69-8,1,9.49.42,18-2,24.75-8.12,5.59-5,8.54-11.35,7.5-18.79C2230.35,37.79,2229.59,35,2227.1,33Zm0-3.89a19.64,19.64,0,0,0-2.4-1.13c-4-1.38-8.17-.31-10.24,2.53-1.58,2.18-1.19,5.14,1.11,6a6.4,6.4,0,0,0,4-.2c.66-.23.88-1.52,1.3-2.34l-.47-.21c-.49,2.11-2,3.16-3.78,2.68A3.3,3.3,0,0,1,2214.3,32a6.34,6.34,0,0,1,5.9-4.1A51.81,51.81,0,0,1,2227.09,29.06Zm-16.45,35.66c-3.44.36-7.13,1-10.84,1s-7.49-.26-11.24-.41C2197.14,66.84,2207,66.42,2210.64,64.72Zm-60.75,8.54c-.44-3.27-3.67-10.34-5.43-12Zm67.27-37c-.78-1.35-1.76-2.29-1.73-3.18s1-2,1.44-3c-1.7.93-2.58,2.25-2,3.73C2215.24,34.66,2216.25,35.29,2217.16,36.24Zm-32.39,8.4,0-.56-8.48.5v.16Zm-14.53,3,0,.24,7.86,1.61.12-.57Zm13.86-1.58,0-.59-7,.54,0,.34Z"/></g></g></g></svg>