<svg xmlns="http://www.w3.org/2000/svg" viewBox="0 0 130.44 285.03"><defs><style>.cls-1,.cls-2,.cls-3{fill:#fff;}.cls-1{stroke:#000;}.cls-1,.cls-2,.cls-4,.cls-5{stroke-miterlimit:10;}.cls-2,.cls-4,.cls-5{stroke:#fff;}.cls-4{fill:none;}</style></defs><g id="Calque_2" data-name="Calque 2"><g id="Favicon_NB" data-name="Favicon NB"><g id="Cuisse"><path class="cls-1" d="M65.3,283.5a24.06,24.06,0,0,1-3.47-1.37C55.11,278.81,51,272.9,48.7,268.52c-8-15.34-5.62-33.61-2.64-47.81.09-.48.2-1,.31-1.49.2-.93.41-1.89.62-2.84,1.71-7.77,3.48-15.8,2.78-23.67-1.12-12.07-7.63-23.34-14.19-33.85-4.16-6.64-8.74-13.1-13.17-19.36-2.74-3.86-5.57-7.86-8.29-11.88C9.56,120.89,6,115.15,2.86,109.56c-.14-.26-.34-.56-.55-.88-.85-1.33-1.82-2.83-1.81-4.39a6.08,6.08,0,0,1,.27-1.73l0-.08a.93.93,0,0,0,0-.13l0-.08v0L.92,102a2.81,2.81,0,0,1,.1-.31,13.69,13.69,0,0,1,1.27-2.43c.2-.31.39-.62.56-.94,1-1.93,2-3.92,2.92-5.91a113.93,113.93,0,0,0,4.7-12c2.21-6.79,4.9-15.72,6-24.61a32.4,32.4,0,0,0,.16-9.28A33.23,33.23,0,0,0,14.17,39l-.27-.65c-.14-.32-.31-.69-.5-1.1-.86-1.83-2-4.32-2-6.53v-.17a5.1,5.1,0,0,1,.32-1.66,3,3,0,0,1,1-1.4l.58-.44L14.81,26c.5-.37,1-.74,1.51-1.1l1.53-1.06,1-.68.53-.36.46-.3,1.12-.74,1.54-1,1.58-1,1.49-.91.1-.06,1.6-.95A157.75,157.75,0,0,1,63.68,2.67c2.63-.75,4.94-1.36,7.05-1.87a18.08,18.08,0,0,1,6.48,0l.64.08A62.06,62.06,0,0,1,88.58,3.23c2.07.63,4.24,1.37,6.84,2.34.6.23,1.21.44,1.82.66a26.62,26.62,0,0,1,6.94,3.2c4.3,3,5.84,8,7.2,12.28.53,1.67,1,3.24,1.64,4.68A22.6,22.6,0,0,0,118.73,34c.57.5,1.2,1.05,1.83,1.58l.89.73a37.88,37.88,0,0,1,5,4.62,13.29,13.29,0,0,1,3.18,6.34c.94,5.29-.7,10.52-2.15,15.14-.63,2-1.36,4.46-2.13,7-1.66,5.52-3.54,11.78-5.11,16.13l-.15.41c-5.65,15.59-12.06,33.27-15.49,50.07-.08.4-.16.81-.25,1.23-.14.72-.29,1.43-.42,2.15a188,188,0,0,0-3.06,25.39v.14c-.27,5.84-.67,14.66-.11,21.14.57,6.64,1.61,13.31,2.61,19.76,1.51,9.69,3.07,19.7,3.1,29.84,0,16-2.92,27.43-9.37,36.07-7.54,10.13-20.92,15.07-31.83,11.75Z"/><g id="Cuisse_de_Poupou" data-name="Cuisse de Poupou"><path class="cls-2" d="M16.49,30.65l0,0c.53.66,1,1.35,1.52,2.05s.86,1.24,1.3,1.84c.31.43.62,1,.27,1.42s-.63.28-.79.56.07.7.3,1a17.34,17.34,0,0,0,1.66,1.66,7,7,0,0,0,.77.47,1,1,0,0,1,.45.44c-.4.16-.16.7,0,.95l2.36,2.69a1.52,1.52,0,0,0-1.64,1.37,4.48,4.48,0,0,0,.53,2.33c.14.36.3.71.44,1.07l2.4,5.63L25,53.63a26.32,26.32,0,0,0,1.59,10.6c.33.87.88,1.85,1.78,2h.07l0,0-.64.56c-.57.51-1.13,1-1.71,1.52A18.06,18.06,0,0,0,23.43,71a6.54,6.54,0,0,0-.45.71,13.76,13.76,0,0,0-1.31,4.5c-.57,3.24-3.35,13.89-3.91,17.13-.09.48-.22,1-.67,1.21a1.85,1.85,0,0,1-1,0,4.82,4.82,0,0,0-3.7,1l-.22.17a4.51,4.51,0,0,0-1.44,2.31,5.13,5.13,0,0,1-.63,2c-.25.32-.71.41-1.07.59a1.05,1.05,0,0,0-.4.32,10.7,10.7,0,0,1-1.57,2,9.65,9.65,0,0,1-2,0,13.86,13.86,0,0,1-2-.35.19.19,0,0,0-.08,0H2.92v0A22.09,22.09,0,0,1,4.67,99.3q1.56-3,3-6A116.09,116.09,0,0,0,12.42,81a140.21,140.21,0,0,0,6.14-25,34.07,34.07,0,0,0,.14-9.88,37.71,37.71,0,0,0-2.92-8.55c-.72-1.7-2.37-4.66-2.34-6.85v-.07l.18-.07C14.55,30.65,15.55,30.62,16.49,30.65Z"/><path class="cls-3" d="M98.89,221.12c-.13.11-.26.22-.4.32a15.18,15.18,0,0,1-2.1,1.23,18.64,18.64,0,0,1-1.72.75c-.6.21-1.2.4-1.82.56l-1,.21-.43.08q-.5.07-1,.12c-.15,0-.3.05-.46.06h0l-.28,0-1.12.08H86.78a1,1,0,0,1-.25,0,1.33,1.33,0,0,1-.2,0h-.27c-3.94-.07-7.92-.67-11.88-.7a34.48,34.48,0,0,0-5.38.47c-.67.1-1.36.17-2,.25-1,.14-2.09.26-3.14.34-.79.09-1.56.2-2.34.35l-.47.11a5.69,5.69,0,0,1-.67.13l-.69.15c-.81.28-1.56.43-2.32.66l-.11,0-.72.26c-1.46.58-2.93,1.09-4.35,1.72a5.28,5.28,0,0,0-1.11.62l-.07.05-.19.16a2.08,2.08,0,0,0-.21.21l-.1.09c-1.1,1.22-1,3.44-1.1,5a53.87,53.87,0,0,0-.07,8.33l0,.4c.34,5,1.29,8.9,2.24,13.92.8,4.29,1.88,8.66,4.47,12.23a16.76,16.76,0,0,0,3.3,3.46c2.27,1.76,5.12,3,9.14,4.21a10.3,10.3,0,0,0,3.93.38h.16c1.27-.12,2.54-.4,3.9-.66a27.29,27.29,0,0,0,14.93-8.9A32.3,32.3,0,0,0,94.11,264c4.75-7.23,6.69-15.85,7-24.6a79.06,79.06,0,0,0-.29-10c-.27-3.05-.68-6.09-1.16-9.11A10,10,0,0,1,98.89,221.12Zm-25.36,9.22a3.89,3.89,0,0,1,.64,5.4c-1.44,1.77-4.11,2-6.45,1.8s-4.8-.66-6.94.24c-2.42,1-3.82,3.61-4.13,6.2a22.87,22.87,0,0,0,.94,7.76c1,4.11.09,1.78,1.08,5.89.82,3.44,1.81,7.15,4.6,9.42a6.45,6.45,0,0,1-7.22-2.72,12.12,12.12,0,0,1-1.21-3.55c-2.12-9.19-2.37-11.93-4.48-21.12-.7-3,1.37-6.4,3.6-8.47,2-1.88,2.72-1.7,5.45-.94s5.3,1.61,8,.86C69.4,230.54,71.39,228.75,73.53,230.34Z"/><path class="cls-4" d="M16.31,30.42l.18.23m82.4,190.47c-.13.11-.26.22-.4.32a15.18,15.18,0,0,1-2.1,1.23,18.64,18.64,0,0,1-1.72.75c-.6.21-1.2.4-1.82.56l-1,.21-.43.08q-.5.07-1,.12c-.15,0-.3.05-.46.06h0l-.28,0-1.12.08H86.78a1,1,0,0,1-.25,0,1.33,1.33,0,0,1-.2,0h-.27c-3.94-.07-7.92-.67-11.88-.7a34.48,34.48,0,0,0-5.38.47c-.67.1-1.36.17-2,.25-1,.14-2.09.26-3.14.34-.79.09-1.56.2-2.34.35l-.47.11a5.69,5.69,0,0,1-.67.13l-.69.15c-.81.28-1.56.43-2.32.66l-.11,0-.72.26c-1.46.58-2.93,1.09-4.35,1.72a5.28,5.28,0,0,0-1.11.62l-.07.05-.19.16a2.08,2.08,0,0,0-.21.21l-.1.09c-1.1,1.22-1,3.44-1.1,5a53.87,53.87,0,0,0-.07,8.33l0,.4c.34,5,1.29,8.9,2.24,13.92.8,4.29,1.88,8.66,4.47,12.23a16.76,16.76,0,0,0,3.3,3.46c2.27,1.76,5.12,3,9.14,4.21a10.3,10.3,0,0,0,3.93.38h.16c1.27-.12,2.54-.4,3.9-.66a27.29,27.29,0,0,0,14.93-8.9A32.3,32.3,0,0,0,94.11,264c4.75-7.23,6.69-15.85,7-24.6a79.06,79.06,0,0,0-.29-10c-.27-3.05-.68-6.09-1.16-9.11A10,10,0,0,1,98.89,221.12Zm-25.36,9.22a3.89,3.89,0,0,1,.64,5.4c-1.44,1.77-4.11,2-6.45,1.8s-4.8-.66-6.94.24c-2.42,1-3.82,3.61-4.13,6.2a22.87,22.87,0,0,0,.94,7.76c1,4.11.09,1.78,1.08,5.89.82,3.44,1.81,7.15,4.6,9.42a6.45,6.45,0,0,1-7.22-2.72,12.12,12.12,0,0,1-1.21-3.55c-2.12-9.19-2.37-11.93-4.48-21.12-.7-3,1.37-6.4,3.6-8.47,2-1.88,2.72-1.7,5.45-.94s5.3,1.61,8,.86C69.4,230.54,71.39,228.75,73.53,230.34Z"/><path class="cls-5" d="M94.72,7.5A73.57,73.57,0,0,0,77.63,2.92a18.56,18.56,0,0,0-6.39-.12c-2.34.56-4.66,1.19-7,1.85a156.87,156.87,0,0,0-36,15l-1.57.93-1.57,1-1.56,1-1.54,1-1.53,1-1.51,1-1.51,1.05L16,27.66l-1.47,1.09c-.19.14-.39.28-.57.43a1,1,0,0,0-.36.51,3,3,0,0,0-.19,1l.18-.07c.93,0,1.93,0,2.87,0l0,0c.53.66,1,1.35,1.52,2.05s.86,1.24,1.3,1.84c.31.43.62,1,.27,1.42s-.63.28-.79.56.07.7.3,1a17.34,17.34,0,0,0,1.66,1.66,7,7,0,0,0,.77.47,1,1,0,0,1,.45.44c-.4.16-.16.7,0,.95l2.36,2.69a1.52,1.52,0,0,0-1.64,1.37,4.48,4.48,0,0,0,.53,2.33c.14.36.3.71.44,1.07l2.4,5.63L25,53.63a26.32,26.32,0,0,0,1.59,10.6c.33.87.88,1.85,1.78,2h.07l0,0-.64.56c-.57.51-1.13,1-1.71,1.52A18.06,18.06,0,0,0,23.43,71a6.54,6.54,0,0,0-.45.71,13.76,13.76,0,0,0-1.31,4.5c-.57,3.24-3.35,13.89-3.91,17.13-.09.48-.22,1-.67,1.21a1.85,1.85,0,0,1-1,0,4.82,4.82,0,0,0-3.7,1l-.22.17a4.51,4.51,0,0,0-1.44,2.31,5.13,5.13,0,0,1-.63,2c-.25.32-.71.41-1.07.59a1.05,1.05,0,0,0-.4.32,10.7,10.7,0,0,1-1.57,2,9.65,9.65,0,0,1-2,0,13.86,13.86,0,0,1-2-.35.19.19,0,0,0-.08,0H2.92s0,.06,0,.1,0,.14-.07.21a2.81,2.81,0,0,1-.08.31,4.4,4.4,0,0,0-.19,1.18c0,1.28,1.46,3.11,2.1,4.25,3.43,6.14,7.21,12.07,11.16,17.9C23,137,30.56,147,37.31,157.78S50.64,180,51.81,192.56c.82,9.15-1.51,18.19-3.44,27.14-.11.49-.21,1-.31,1.46-3.23,15.46-5,32.22,2.45,46.43,2.74,5.25,6.83,10,12.21,12.69,11.26,5.55,25.48,0,32.76-9.78s9-22.6,9-34.84c-.06-16.71-4.27-32.76-5.71-49.42-.57-6.68-.16-15.51.12-21.57A189.14,189.14,0,0,1,102,139c.2-1.15.45-2.28.67-3.43,3.49-17.1,10.08-35.22,15.72-50.77,2.28-6.29,5.21-16.67,7.22-23.07,1.39-4.47,2.93-9.4,2.08-14.17a11.19,11.19,0,0,0-2.71-5.35,44.85,44.85,0,0,0-5.69-5.11c-.65-.55-1.29-1.11-1.9-1.65a24.8,24.8,0,0,1-6.21-8.29C108.8,21.74,108.2,14.77,103,11.1,100.51,9.33,97.55,8.55,94.72,7.5Zm6.1,221.93a79.06,79.06,0,0,1,.29,10c-.31,8.75-2.25,17.37-7,24.6a32.3,32.3,0,0,1-2.91,3.79,27.29,27.29,0,0,1-14.93,8.9c-1.36.26-2.63.54-3.9.66h-.16a10.3,10.3,0,0,1-3.93-.38c-4-1.21-6.87-2.45-9.14-4.21a16.76,16.76,0,0,1-3.3-3.46c-2.59-3.57-3.67-7.94-4.47-12.23-.95-5-1.9-8.9-2.24-13.92l0-.4a53.87,53.87,0,0,1,.07-8.33c.13-1.54,0-3.76,1.1-5l.1-.09a2.08,2.08,0,0,1,.21-.21l.19-.16.07-.05a5.28,5.28,0,0,1,1.11-.62c1.42-.63,2.89-1.14,4.35-1.72l.72-.26.11,0c.76-.23,1.51-.38,2.32-.66l.69-.15a5.69,5.69,0,0,0,.67-.13l.47-.11c.78-.15,1.55-.26,2.34-.35,1.05-.08,2.1-.2,3.14-.34.68-.08,1.37-.15,2-.25a34.48,34.48,0,0,1,5.38-.47c4,0,7.94.63,11.88.7h.27a1.33,1.33,0,0,0,.2,0,1,1,0,0,0,.25,0h1.71l1.12-.08.28,0h0c.16,0,.31,0,.46-.06q.49,0,1-.12l.43-.08,1-.21c.62-.16,1.22-.35,1.82-.56a18.64,18.64,0,0,0,1.72-.75,15.18,15.18,0,0,0,2.1-1.23c.14-.1.27-.21.4-.32a10,10,0,0,0,.77-.8C100.14,223.34,100.55,226.38,100.82,229.43Z"/><path class="cls-5" d="M73.53,230.34a3.89,3.89,0,0,1,.64,5.4c-1.44,1.77-4.11,2-6.45,1.8s-4.8-.66-6.94.24c-2.42,1-3.82,3.61-4.13,6.2a22.87,22.87,0,0,0,.94,7.76c1,4.11.09,1.78,1.08,5.89.82,3.44,1.81,7.15,4.6,9.42a6.45,6.45,0,0,1-7.22-2.72,12.12,12.12,0,0,1-1.21-3.55c-2.12-9.19-2.37-11.93-4.48-21.12-.7-3,1.37-6.4,3.6-8.47,2-1.88,2.72-1.7,5.45-.94s5.3,1.61,8,.86C69.4,230.54,71.39,228.75,73.53,230.34Z"/></g></g></g></g></svg>